<svg id="Layer_1" data-name="Layer 1" xmlns="http://www.w3.org/2000/svg" viewBox="0 0 421.7 427.47"><defs><style>.cls-1{fill:#ebebeb;}.cls-16,.cls-2{fill:#263238;}.cls-12,.cls-3{fill:#dbdbdb;}.cls-3{opacity:0.3;}.cls-16,.cls-3,.cls-9{isolation:isolate;}.cls-4{opacity:0.5;}.cls-5{fill:#fff;}.cls-6{fill:#a6a6a6;}.cls-7{fill:#37474f;}.cls-8{fill:#ffc727;}.cls-17,.cls-9{opacity:0.1;}.cls-10{fill:#455a64;}.cls-11{fill:#f7a9a0;}.cls-13{fill:#c7c7c7;}.cls-14{fill:#ff9bbc;}.cls-15{fill:#ad6359;}.cls-16{opacity:0.2;}</style></defs><g id="Background_Complete" data-name="Background Complete"><path class="cls-1" d="M445.43,153H344.92s10-27.22,25.3-27.22,20.14,18.79,20.14,18.79,10.35-10.21,18.85-10.21,15.89,13.49,15.89,13.49S437.12,140.56,445.43,153Z" transform="translate(-39.15 -39.54)"/><path class="cls-1" d="M293.1,290.07H192.59s10-27.22,25.3-27.22S238,281.64,238,281.64s10.35-10.21,18.85-10.21,15.89,13.49,15.89,13.49S284.79,277.66,293.1,290.07Z" transform="translate(-39.15 -39.54)"/><path class="cls-1" d="M364.45,99.13h-47S328,83.92,336.24,83.92,347,94.06,347,94.06s5.84-4.73,11.24-3.89S364.45,99.13,364.45,99.13Z" transform="translate(-39.15 -39.54)"/><path class="cls-1" d="M277.51,190.28h-47s10.5-15.21,18.76-15.21S260,185.21,260,185.21s5.84-4.73,11.24-3.89S277.51,190.28,277.51,190.28Z" transform="translate(-39.15 -39.54)"/><path class="cls-1" d="M146.06,154.26H54.57s12.53-28,25.93-29.72,19.81,20.78,19.81,20.78,8.64-8,15.44-8,12,10.49,12,10.49S141.4,140.66,146.06,154.26Z" transform="translate(-39.15 -39.54)"/><path class="cls-1" d="M233,75.66h-61.8s10.62-20.27,22.13-20.56,17.57,15.34,17.57,15.34S228.83,56.06,233,75.66Z" transform="translate(-39.15 -39.54)"/><path class="cls-1" d="M439.44,237.5h-61.8s10.62-20.27,22.13-20.56,17.57,15.34,17.57,15.34S435.26,217.9,439.44,237.5Z" transform="translate(-39.15 -39.54)"/><path class="cls-1" d="M81.69,365.5l-13.12.28-6.66.11c-2.23.05-4.46,0-6.69.05h-.44v-.45l-.05-11.19v-.5h.5l13.24.06c4.41,0,8.83.11,13.24.16H82v.27c0,1.9-.09,3.79-.13,5.65Zm0,0-.14-5.65c0-1.86-.11-3.7-.13-5.54l.27.27c-4.41.05-8.83.16-13.24.16l-13.24.06.5-.5-.05,11.19-.45-.45c2.18,0,4.36,0,6.55,0l6.58.11Z" transform="translate(-39.15 -39.54)"/><path class="cls-1" d="M66.92,379.61l-13.12.28-6.67.11c-2.23.05-4.46,0-6.69.05H40v-.45l0-11.19v-.5h.5l13.24.06c4.41,0,8.83.11,13.24.16h.28v.27c0,1.9-.09,3.79-.13,5.65Zm0,0L66.78,374c0-1.86-.11-3.7-.13-5.54l.27.27c-4.41.05-8.83.16-13.24.16l-13.24.06.5-.5,0,11.19-.45-.45c2.18,0,4.36,0,6.55.06l6.58.11Z" transform="translate(-39.15 -39.54)"/><path class="cls-1" d="M283.17,365.5l-13.12.28-6.66.11c-2.23.05-4.46,0-6.69.05h-.44v-.45l-.05-11.19v-.5h.5l13.24.06c4.41,0,8.83.11,13.24.16h.28v.27c0,1.9-.09,3.79-.13,5.65Zm0,0-.14-5.65c0-1.86-.11-3.7-.13-5.54l.27.27c-4.41.05-8.83.16-13.24.16l-13.24.06.5-.5-.05,11.19-.45-.45c2.18,0,4.36,0,6.55,0l6.58.11Z" transform="translate(-39.15 -39.54)"/><path class="cls-1" d="M268.4,379.61l-13.12.28-6.66.11c-2.23.05-4.46,0-6.69.05h-.44v-.45l-.05-11.19v-.5h.5l13.24.06c4.41,0,8.83.11,13.24.16h.28v.27c0,1.9-.09,3.79-.13,5.65Zm0,0-.14-5.65c-.05-1.86-.11-3.7-.13-5.54l.27.27c-4.41.05-8.83.16-13.24.16l-13.24.06.5-.5,0,11.19-.45-.45c2.18,0,4.36,0,6.55.06l6.58.11Z" transform="translate(-39.15 -39.54)"/><path class="cls-1" d="M253.69,365.5l-13.12.28-6.66.11c-2.23.05-4.46,0-6.69.05h-.44v-.45l-.05-11.19v-.5h.5l13.24.06c4.41,0,8.83.11,13.24.16H254v.27c0,1.9-.09,3.79-.13,5.65Zm0,0-.14-5.65c-.05-1.86-.11-3.7-.13-5.54l.27.27c-4.41.05-8.83.16-13.24.16l-13.24.06.5-.5-.05,11.19-.45-.45c2.18,0,4.36,0,6.55,0l6.58.11Z" transform="translate(-39.15 -39.54)"/><path class="cls-1" d="M460.06,379.61l-13.12.28-6.66.11c-2.23.05-4.46,0-6.69.05h-.44v-.45l0-11.19v-.5h.5l13.24.06c4.41,0,8.83.11,13.24.16h.28v.27c0,1.9-.09,3.79-.13,5.65Zm0,0-.14-5.65c-.05-1.86-.11-3.7-.13-5.54l.27.27c-4.41.05-8.83.16-13.24.16l-13.24.06.5-.5L434,379.6l-.45-.45c2.18,0,4.36,0,6.55.06l6.58.11Z" transform="translate(-39.15 -39.54)"/></g><g id="Shadow"><ellipse class="cls-1" cx="210.85" cy="411.86" rx="198.22" ry="15.61"/></g><g id="Floor"><polygon class="cls-2" points="0 354.76 52.71 354.52 105.43 354.43 210.85 354.26 316.27 354.43 368.99 354.52 421.7 354.76 368.99 355.01 316.27 355.09 210.85 355.26 105.43 355.09 52.71 355.01 0 354.76"/></g><g id="Window"><rect class="cls-3" width="421.7" height="297.89"/><g class="cls-4"><polygon class="cls-5" points="152.67 0 0 137.91 0 104.12 115.26 0 152.67 0"/><polygon class="cls-5" points="421.7 189.47 421.7 223.26 339.06 297.89 301.65 297.89 421.7 189.47"/><polygon class="cls-5" points="71.63 0 0 64.71 0 53.63 59.39 0 71.63 0"/><polygon class="cls-5" points="421.7 67.2 421.7 78.25 178.55 297.89 166.29 297.89 421.7 67.2"/><polygon class="cls-5" points="421.7 241.19 421.7 252.25 371.17 297.89 358.91 297.89 421.7 241.19"/><polygon class="cls-5" points="368.71 0 38.9 297.89 26.65 297.89 356.46 0 368.71 0"/><polygon class="cls-5" points="242.53 0 0 219.07 0 216.48 239.68 0 242.53 0"/><polygon class="cls-5" points="421.7 95.27 421.7 97.85 200.23 297.89 197.37 297.89 421.7 95.27"/></g><rect class="cls-6" y="81.84" width="421.7" height="2.4"/><rect class="cls-6" x="135.84" width="2.46" height="297.89"/><rect class="cls-6" x="283.39" y="0.01" width="2.46" height="297.89"/><rect class="cls-7" y="297.89" width="421.7" height="8.84"/></g><g id="Plant"><path class="cls-8" d="M80.09,257.59s-19.19-2.69-14.7-25.85C65.39,231.73,86.83,236.55,80.09,257.59Z" transform="translate(-39.15 -39.54)"/><path class="cls-9" d="M80.09,257.59s-19.19-2.69-14.7-25.85C65.39,231.73,86.83,236.55,80.09,257.59Z" transform="translate(-39.15 -39.54)"/><path class="cls-2" d="M79.12,252.75c-.38-1.17-.82-2.32-1.31-3.45,0-.15,0-.3,0-.44,0-.32-.05-.64-.08-1-.05-.69-.1-1.38-.14-2.08-.08-1.38-.17-2.77-.19-4.15,0-.08-.12-.07-.12,0,0,1.39,0,2.77,0,4.16,0,.69.07,1.38.11,2.08l0,.46a40.44,40.44,0,0,0-3.85-6.58,33.6,33.6,0,0,0-2.1-2.66c-.76-.88-1.57-1.71-2.35-2.58,0-.06-.13,0-.08.08a34.21,34.21,0,0,1,3.7,4.92c.58.88,1.13,1.79,1.66,2.71l-.18-.07-.68-.28-1.57-.59-3.09-1.15c-.06,0-.1.08,0,.11,1,.41,2,.84,3,1.27l1.49.64.75.31a2.38,2.38,0,0,0,.51.18c.39.69.77,1.39,1.12,2.1a49.86,49.86,0,0,1,2.35,5.53c.05.13.09.27.14.4a11.32,11.32,0,0,0-1.57-.76l-2-.91c-1.35-.62-2.68-1.25-4-2-.07,0-.12.07-.06.1,1.32.72,2.61,1.49,3.93,2.2.66.36,1.32.71,2,1a6.23,6.23,0,0,0,1.8.72,23.12,23.12,0,0,1,1.26,5.44c.21,2.62.19,5.26.25,7.89,0,.05.07,0,.07,0,.19-2.38.3-4.79.31-7.18A20.26,20.26,0,0,0,79.12,252.75Z" transform="translate(-39.15 -39.54)"/><path class="cls-2" d="M76.17,239.13a23.31,23.31,0,0,0-.19,4.09,0,0,0,0,0,.06,0c.08-1.35.09-2.71.25-4.06C76.29,239.08,76.18,239.05,76.17,239.13Z" transform="translate(-39.15 -39.54)"/><path class="cls-2" d="M70.68,240.29a15.27,15.27,0,0,1-2.47-1.21c-.06,0-.12.06-.06.1a9.51,9.51,0,0,0,2.49,1.19C70.7,240.38,70.73,240.31,70.68,240.29Z" transform="translate(-39.15 -39.54)"/><path class="cls-2" d="M80.71,294.36c0-2.12-.06-4.24-.08-6.36,0-7-.1-14.09-.22-21.13q-.15-8.39-.39-16.77s0,0,0-.07c0-1.53,0-3.05,0-4.58,0,0,0-.06-.09-.06s-.09,0-.09.06l0,4.59a.1.1,0,0,0,0,.07c-.28,9.95-.53,19.9-.59,29.85,0,2,0,4.05,0,6.07Q79,295.77,79,305.5c0,1,0,2.07,0,3.1,0,5.94.06,11.87.06,17.81,0,.32.35.48.73.49s.89-.15.89-.52c0-6.55,0-13.09,0-19.64C80.72,302.62,80.74,298.49,80.71,294.36Z" transform="translate(-39.15 -39.54)"/><path class="cls-8" d="M72.69,287.92s-9.23-6.84-18-2.22-10.13,22.43-10.13,22.43,12.86,1.84,21-5.87C73.34,294.84,72.69,287.92,72.69,287.92Z" transform="translate(-39.15 -39.54)"/><path class="cls-9" d="M72.69,287.92s-9.23-6.84-18-2.22-10.13,22.43-10.13,22.43,12.86,1.84,21-5.87C73.34,294.84,72.69,287.92,72.69,287.92Z" transform="translate(-39.15 -39.54)"/><path class="cls-2" d="M75.21,288.34a11,11,0,0,0-5.35-.7,8.64,8.64,0,0,0-1.13-.11l-1.3-.1-2.69-.19c-1.82-.14-3.65-.25-5.46-.43-.06,0-.08.11,0,.12,1.8.23,3.59.49,5.39.67.93.09,1.86.19,2.79.26l.68.07-.82.2a22,22,0,0,0-4.18,1.7c-.73.13-1.45.33-2.16.5-1.14.27-2.28.56-3.41.86-2.24.59-4.46,1.25-6.68,1.89a.06.06,0,0,0,0,.11c2.22-.55,4.46-1,6.68-1.57,1.08-.26,2.17-.51,3.25-.78l.85-.2a27,27,0,0,0-6.56,5.7,35.53,35.53,0,0,0-4.56,7.19c0,.07.06.13.1.06a34.79,34.79,0,0,1,5.52-7.24l-.12.37-.51,1.63c-.34,1.09-.69,2.17-1,3.26a.06.06,0,0,0,.11,0c.39-1.05.76-2.11,1.13-3.17l.55-1.56.28-.81.09-.25A34.44,34.44,0,0,1,60,293.06a24.79,24.79,0,0,1,4.9-2.81l-.09.47L64.52,292c-.18.87-.35,1.75-.52,2.63-.35,1.79-.56,3.6-.9,5.38,0,.07.1.1.11,0,.41-1.8.95-3.56,1.35-5.36.2-.9.4-1.8.59-2.7.09-.42.17-.84.26-1.27,0-.24.1-.47.13-.71l.5-.21a14.48,14.48,0,0,1,7.68-1,7.54,7.54,0,0,1,5.56,4.45c.08.2.4.08.35-.13A7.3,7.3,0,0,0,75.21,288.34Z" transform="translate(-39.15 -39.54)"/><path class="cls-2" d="M61.08,296l-.78,3.51a26.61,26.61,0,0,0-.65,3.41,0,0,0,0,0,.07,0,25.18,25.18,0,0,0,.78-3.44c.23-1.15.45-2.31.68-3.46C61.2,295.9,61.09,295.88,61.08,296Z" transform="translate(-39.15 -39.54)"/><path class="cls-2" d="M52.15,298.92c-1.18.6-2.31,1.27-3.54,1.76-.08,0,0,.14,0,.11A37.75,37.75,0,0,0,52.18,299S52.18,298.91,52.15,298.92Z" transform="translate(-39.15 -39.54)"/><path class="cls-8" d="M74.77,275.36s-11.28.72-16.53-6.72-4.07-18.06-4.07-18.06S66,252,70.73,257.36,74.77,275.36,74.77,275.36Z" transform="translate(-39.15 -39.54)"/><path class="cls-2" d="M80.06,286.49c-.39-1.21-.87-2.4-1.33-3.59s-.91-2.27-1.4-3.38A70.37,70.37,0,0,0,74,272.87c-.8-1.37-1.65-2.7-2.53-4,0-.2-.06-.4-.09-.6s-.1-.7-.16-1.05c-.11-.71-.24-1.43-.36-2.14-.26-1.56-.58-3.11-.83-4.66,0-.07-.13-.07-.12,0,.23,1.54.38,3.09.6,4.63.11.76.2,1.51.32,2.27,0,.27.09.55.13.82a81.06,81.06,0,0,0-5.58-7.24l-.82-.92c0-.09-.07-.17-.1-.26s-.17-.43-.25-.65c-.17-.45-.33-.9-.49-1.35-.32-.88-.6-1.78-.84-2.68a.06.06,0,0,0-.11,0c.23.93.47,1.85.74,2.76.13.44.28.88.43,1.31,0,.07,0,.14.08.22-1.44-1.57-2.95-3.09-4.47-4.58,0-.05-.13,0-.08.08a80.69,80.69,0,0,1,8,9.79,6.45,6.45,0,0,0-.84-.21c-.87-.17-1.74-.29-2.62-.4-1.84-.23-3.67-.47-5.5-.75-.07,0-.1.1,0,.11,1.75.34,3.48.74,5.22,1.14.82.19,1.64.35,2.47.51a18.7,18.7,0,0,1,2,.56l.55.78c.83,1.21,1.62,2.43,2.4,3.67l-1.15-.22c-.87-.17-1.75-.33-2.62-.47-1.72-.28-3.44-.58-5.14-1-.07,0-.1.1,0,.11,1.73.4,3.43.88,5.15,1.33.83.22,1.66.42,2.49.61l1.25.27a3.43,3.43,0,0,0,.51.09q2.48,4,4.63,8.2c.63,1.23,1.23,2.47,1.82,3.72s1.12,2.59,1.68,3.89C79.74,286.88,80.15,286.78,80.06,286.49Z" transform="translate(-39.15 -39.54)"/><path class="cls-2" d="M68.51,260.57c-.22-1.08-.44-2.15-.68-3.22a.06.06,0,0,0-.11,0c.21,1.06.42,2.12.61,3.18a31,31,0,0,0,.64,3.16s0,0,0,0A20.92,20.92,0,0,0,68.51,260.57Z" transform="translate(-39.15 -39.54)"/><path class="cls-2" d="M61.93,260.25c-.52-.26-1.08-.47-1.62-.68l-.86-.33-.44-.17a2.26,2.26,0,0,1-.48-.21c-.08-.06-.14.09-.05.1a2,2,0,0,1,.48.2l.43.19.82.37a16.1,16.1,0,0,0,1.67.66C62,260.39,62,260.28,61.93,260.25Z" transform="translate(-39.15 -39.54)"/><path class="cls-8" d="M86.31,266.49s6.83-12.75,17.22-14.73,16.74,8.71,16.74,8.71-7.58,9.68-17.11,11.36S86.31,266.49,86.31,266.49Z" transform="translate(-39.15 -39.54)"/><path class="cls-2" d="M110.49,257.48a27.84,27.84,0,0,0-8.15.1l.46-.25,2.3-1.19c1.59-.83,3.21-1.71,4.88-2.38.08,0,0-.14,0-.11-1.62.76-3.31,1.39-4.94,2.14-.82.37-1.62.77-2.41,1.19-.51.27-1.08.53-1.58.85A28.74,28.74,0,0,0,94.4,260l1.3-1.41c1-1.06,1.92-2.17,3-3.14.06-.05,0-.13-.08-.08-1.09,1-2.23,1.9-3.29,2.93-.51.5-1,1-1.48,1.55-.24.26-.48.54-.7.82a27.37,27.37,0,0,0-13.92,18.8c0,.07.09.11.11,0A31.42,31.42,0,0,1,87,266.61a29.91,29.91,0,0,1,23.52-8.92A.11.11,0,0,0,110.49,257.48Z" transform="translate(-39.15 -39.54)"/><path class="cls-9" d="M120.28,260.48s-7.58,9.68-17.11,11.36c-7.27,1.29-13.25-2.5-15.68-4.37l-.52-.86s4.92-4.15,14.22-6.54S120.28,260.48,120.28,260.48Z" transform="translate(-39.15 -39.54)"/><path class="cls-2" d="M104.46,252.93a27,27,0,0,0-2.31,1.52,15.08,15.08,0,0,0-2,1.83.06.06,0,1,0,.09.08c.69-.6,1.38-1.2,2.1-1.77a22.38,22.38,0,0,1,2.18-1.58C104.58,253,104.52,252.89,104.46,252.93Z" transform="translate(-39.15 -39.54)"/><path class="cls-2" d="M110.16,255.09l-1.16.46-1.16.48c-.08,0,0,.17,0,.13l1.16-.47,1.15-.49C110.26,255.17,110.23,255.06,110.16,255.09Z" transform="translate(-39.15 -39.54)"/><path class="cls-8" d="M85,282.54s1.82,12.65,11.34,17.08,21.11,0,21.11,0S112.84,272.25,85,282.54Z" transform="translate(-39.15 -39.54)"/><path class="cls-9" d="M85,282.54s1.82,12.65,11.34,17.08,21.11,0,21.11,0S112.84,272.25,85,282.54Z" transform="translate(-39.15 -39.54)"/><path class="cls-2" d="M110.85,291.39c-.88-.1-1.75-.25-2.62-.41l-1.28-.24-.67-.13-.77-.71a38.37,38.37,0,0,0-5.82-4.22,31.87,31.87,0,0,0-3.49-1.79h.18l3.13.14c2.09.1,4.18.14,6.26.28.08,0,.07-.11,0-.12-2.09-.14-4.18-.37-6.27-.55l-3-.27-1.57-.14-.4,0c-.54-.2-1.09-.39-1.64-.57a14.75,14.75,0,0,0-8.06-.44c-2.39.61-4.78,2.18-5.4,4.7,0,.09.11.15.15.06.89-2.11,3.23-3.17,5.35-3.61a12.48,12.48,0,0,1,4.31-.08,10.08,10.08,0,0,0,.48,1.91c.26.89.52,1.78.79,2.67.54,1.78,1.13,3.54,1.66,5.32a.06.06,0,0,0,.11,0c-.44-1.78-.81-3.57-1.24-5.35-.21-.87-.43-1.74-.65-2.62a14.15,14.15,0,0,0-.48-1.8,25.34,25.34,0,0,1,2.47.58,36,36,0,0,1,4.31,1.58c.14.9.34,1.8.55,2.68.26,1.12.55,2.22.9,3.31,0,.07.12,0,.11,0s0-.14,0-.21h0c-.21-1-.44-2.07-.66-3.1-.18-.83-.34-1.67-.52-2.5,1.18.53,2.34,1.11,3.47,1.76,0,.26.09.52.12.76.07.43.15.87.23,1.3.18,1,.37,1.95.61,2.91a45.72,45.72,0,0,0,1.64,5.5s0,.05,0,.07l0,.06c0,.05.11,0,.1-.06-.44-1.87-.94-3.73-1.35-5.62q-.31-1.41-.6-2.82l-.27-1.42c0-.13,0-.28-.07-.42a39,39,0,0,1,3.7,2.47,39.75,39.75,0,0,1,5.67,5.18c.07.08.2,0,.14-.11-.73-1-1.45-1.89-2.27-2.77-.48-.51-1-1-1.48-1.49l.16,0c.45.08.89.14,1.34.2.88.12,1.76.2,2.64.3C110.89,291.51,110.92,291.4,110.85,291.39Z" transform="translate(-39.15 -39.54)"/><path class="cls-2" d="M104.16,295.68h0c0-.11,0-.22,0-.33s-.1-.27-.12-.41h0c-.2-.85-.36-1.7-.51-2.55,0-.06-.11,0-.1,0a10.38,10.38,0,0,0,.72,3.3s.07,0,.06,0Z" transform="translate(-39.15 -39.54)"/><path class="cls-2" d="M96.2,295.48s0-.05-.06-.05c-.27-1.12-.52-2.24-.75-3.37-.12-.59-.25-1.19-.36-1.78l-.18-1a2.54,2.54,0,0,0-.21-.82.06.06,0,0,0-.11,0,5.5,5.5,0,0,0,.24,1.7c.12.62.24,1.23.37,1.85.28,1.25.59,2.49.94,3.72a.07.07,0,0,0,.13,0C96.21,295.66,96.2,295.57,96.2,295.48Z" transform="translate(-39.15 -39.54)"/><path class="cls-2" d="M110,287.75c-1.74-.24-3.47-.49-5.21-.7-.07,0-.1.1,0,.11,1.73.26,3.48.47,5.21.7C110,287.87,110.05,287.76,110,287.75Z" transform="translate(-39.15 -39.54)"/><path class="cls-8" d="M80.08,252.87S74.26,227.33,101.7,217C101.7,217,109.3,250.61,80.08,252.87Z" transform="translate(-39.15 -39.54)"/><path class="cls-2" d="M86,238.39l.29-.18,1.55-.87L91,235.56c2.09-1.17,4.16-2.39,6.27-3.54.07,0,0-.14-.06-.1-2.11,1.15-4.26,2.22-6.39,3.35l-3.15,1.66-1.28.68c.92-1.74,1.89-3.44,3-5.08,1.43-2.19,3-4.27,4.64-6.31a.1.1,0,0,0-.14-.13,43.14,43.14,0,0,0-6.34,7.78,2.44,2.44,0,0,1,0-.27c0-.64,0-1.27.06-1.91,0-1.25,0-2.5,0-3.74,0-.08-.11-.07-.12,0,0,1.23-.2,2.45-.27,3.68,0,.61-.06,1.22-.08,1.84,0,.33,0,.71,0,1.07-.57.9-1.11,1.81-1.62,2.74A48.47,48.47,0,0,0,83,242.42c0-.64-.07-1.27-.1-1.91-.08-1.4-.25-2.79-.31-4.19,0-.08-.12-.07-.12,0,0,1.4,0,2.8,0,4.2,0,.7,0,1.4.09,2.1,0,.26,0,.52,0,.78a46.2,46.2,0,0,0-2.07,7,77.09,77.09,0,0,0-1,7.71,0,0,0,0,0,0,0,41.71,41.71,0,0,1,1.46-6.88c.34-1.21.7-2.4,1.08-3.59,1.14-.54,2.23-1.21,3.34-1.82L88.92,244c2.29-1.26,4.57-2.53,6.94-3.64.07,0,0-.13-.06-.1-2.39,1.08-4.8,2.11-7.15,3.29-1.17.59-2.32,1.21-3.46,1.86-1,.54-1.93,1.07-2.84,1.69.27-.79.54-1.59.85-2.37A62,62,0,0,1,86,238.39Z" transform="translate(-39.15 -39.54)"/><path class="cls-2" d="M83.69,232.55c0-.07-.12-.07-.12,0,.1,1.46.15,2.91.3,4.37,0,.08.13.08.13,0C84,235.45,83.8,234,83.69,232.55Z" transform="translate(-39.15 -39.54)"/><path class="cls-2" d="M96.84,237.43c-1.72.69-3.45,1.35-5.16,2.06-.05,0,0,.1,0,.08,1.73-.65,3.44-1.36,5.17-2C97,237.51,96.91,237.4,96.84,237.43Z" transform="translate(-39.15 -39.54)"/><path class="cls-2" d="M99.45,225.65a44.85,44.85,0,0,0-4.88,2.62c-.08,0,0,.17.08.12,1.59-.93,3.21-1.82,4.86-2.64C99.58,225.71,99.52,225.62,99.45,225.65Z" transform="translate(-39.15 -39.54)"/><rect class="cls-10" x="20.32" y="268.56" width="39.57" height="41.71"/><rect class="cls-2" x="17.59" y="283.32" width="2.02" height="71.45"/><rect class="cls-2" x="60.37" y="283.32" width="2.02" height="71.45"/><rect class="cls-2" x="40.06" y="283.32" width="2.02" height="71.45"/><rect class="cls-2" x="18.6" y="307.59" width="42.78" height="5.78"/></g><g id="Character_2" data-name="Character 2"><path class="cls-11" d="M326.19,203S304.54,311.72,303,319.74c-.35,1.83.9,99.16.9,99.16H263.67s-3.88-85-1.93-101S288.2,203,288.2,203h38Z" transform="translate(-39.15 -39.54)"/><path class="cls-2" d="M326.19,203s-10.54,52.92-17.43,87.65L288.2,203Z" transform="translate(-39.15 -39.54)"/><polygon class="cls-7" points="235.41 217.81 278.19 222.95 287.04 163.44 249.05 163.44 235.41 217.81"/><path class="cls-2" d="M315.74,254.28c-4.57-.91-9.21-1.48-13.84-2s-9.17-1-13.76-1.49c-2.63-.27-5.26-.53-7.9-.67a.13.13,0,1,0,0,.25c4.58.85,9.23,1.39,13.84,2s9.15,1.17,13.74,1.66c2.63.28,5.26.51,7.9.61A.18.18,0,1,0,315.74,254.28Z" transform="translate(-39.15 -39.54)"/><path class="cls-2" d="M320.27,206.45q-4.77,17.09-9.1,34.3-.6,2.42-1.18,4.84a50.36,50.36,0,0,0-1.07,5,.08.08,0,0,0,.15,0,85,85,0,0,0,2.5-8.62c.77-2.84,1.5-5.7,2.24-8.55,1.47-5.71,2.94-11.41,4.33-17.14q1.19-4.91,2.35-9.81A.11.11,0,0,0,320.27,206.45Z" transform="translate(-39.15 -39.54)"/><path class="cls-11" d="M233.91,455.77c2.22.74,65.67.55,68.09-1,.91-.57,1.43-9.82,1.73-21q.11-3.63.16-7.45c.05-3,.09-6,.11-9,.08-13.25-.4-24.92-.4-24.92h-41l0,24.92v9l.21,7.45s-24.26,10.94-26.73,12.91S231.7,455,233.91,455.77Z" transform="translate(-39.15 -39.54)"/><path class="cls-12" d="M233.91,455.77c2.22.74,65.67.55,68.09-1,.91-.57,1.43-9.82,1.73-21q.11-3.63.16-7.45c.05-3,.09-6,.11-9H262.6v9l.21,7.45s-24.26,10.94-26.73,12.91S231.7,455,233.91,455.77Z" transform="translate(-39.15 -39.54)"/><path class="cls-8" d="M233.72,455.87c1.45.48,28.47.57,48.15.17,4.55-.1,8.72-.22,12.08-.37,4.63-.21,7.74-.47,8.24-.79,1.12-.72,1.65-14.29,1.9-28.61H262.58l.21,7.48s-24.4,11-26.88,13S231.5,455.12,233.72,455.87Z" transform="translate(-39.15 -39.54)"/><path class="cls-2" d="M234.63,453.31c10.69-.29,53.86-.47,64.45.05.09,0,.09.06,0,.07-10.59.52-53.76.35-64.45.05C234.4,453.48,234.4,453.32,234.63,453.31Z" transform="translate(-39.15 -39.54)"/><path class="cls-2" d="M261.28,431.38c4.21-.8,9.36-.17,12.58,2.82.12.12,0,.29-.18.25a58.8,58.8,0,0,0-12.38-2.54A.27.27,0,0,1,261.28,431.38Z" transform="translate(-39.15 -39.54)"/><path class="cls-2" d="M258.24,433.22c4.21-.8,9.36-.17,12.58,2.82.12.12,0,.29-.18.25a58.8,58.8,0,0,0-12.38-2.54A.27.27,0,0,1,258.24,433.22Z" transform="translate(-39.15 -39.54)"/><path class="cls-2" d="M255.21,435.06c4.21-.8,9.36-.17,12.58,2.82.13.12,0,.29-.18.25a58.8,58.8,0,0,0-12.38-2.54A.27.27,0,0,1,255.21,435.06Z" transform="translate(-39.15 -39.54)"/><path class="cls-2" d="M252.18,436.9c4.21-.8,9.36-.17,12.58,2.82.13.12,0,.29-.18.25a58.8,58.8,0,0,0-12.38-2.54A.27.27,0,0,1,252.18,436.9Z" transform="translate(-39.15 -39.54)"/><path class="cls-2" d="M255.38,427.66c3,2.31,6.86,3.24,10.34,4.52a.53.53,0,0,0,.66-.53.11.11,0,0,0,.1-.15,22.5,22.5,0,0,0-6.51-9.62c-1.76-1.47-4.84-2.49-6.49-.2S253.64,426.32,255.38,427.66Zm-1.08-3.38c-.76-4.62,4.21-2.21,5.46-1.07a24.2,24.2,0,0,1,2.24,2.4,67.55,67.55,0,0,1,3.93,5.54c-1.67-.73-3.39-1.31-5.08-2C258.82,428.37,254.71,426.82,254.3,424.28Z" transform="translate(-39.15 -39.54)"/><path class="cls-2" d="M280.51,425.05c-1-2.62-4.26-2.41-6.34-1.42a22.53,22.53,0,0,0-8.71,7.69.11.11,0,0,0,.06.17.53.53,0,0,0,.51.68c3.69-.37,7.68-.3,11.14-1.79C279.19,429.5,281.48,427.53,280.51,425.05Zm-9,5.41c-1.81.23-3.62.36-5.42.65a65.51,65.51,0,0,1,5.18-4.38A24.11,24.11,0,0,1,274,425c1.5-.79,6.91-1.88,5,2.4C278,429.72,273.66,430.19,271.51,430.46Z" transform="translate(-39.15 -39.54)"/><path class="cls-9" d="M278.18,456.11l3.69-.07c4.56-.1,8.72-.22,12.07-.38,4.63-.2,7.74-.46,8.25-.78.85-.55,1.36-8.49,1.67-18.53Z" transform="translate(-39.15 -39.54)"/><path class="cls-11" d="M316.06,413.87l41.39-.51s-9.52-141.12-13.06-170.49c0,0,6.71-15.9-5.85-39.92H288.16s3.38,22.86,9.16,37.35a54.31,54.31,0,0,1,10.54,4.75Z" transform="translate(-39.15 -39.54)"/><path class="cls-7" d="M308.6,262.8h39.57l-3-19.94s6-20.23-5.74-39.92H288.16s2.12,21.44,8.41,37.57l6.44,2.86Z" transform="translate(-39.15 -39.54)"/><path class="cls-2" d="M303,243.37c0-.25-.56-.25-.52,0,2.08,11.75,5.37,17.45,5.61,18a.08.08,0,0,0,.15,0C308.44,260.8,304,248.25,303,243.37Z" transform="translate(-39.15 -39.54)"/><path class="cls-2" d="M295.41,239.71a82.61,82.61,0,0,1,13.11,6.11c.16.09.06.35-.12.27-4.42-1.9-8.92-3.71-13.23-5.85A.29.29,0,0,1,295.41,239.71Z" transform="translate(-39.15 -39.54)"/><path class="cls-2" d="M294,209.41c0-.15.28-.19.28,0a146.71,146.71,0,0,0,.74,14.76c.21,2.28,2,14.85,6,13.93.66-.15,1-.8,1.1-1.8a16.45,16.45,0,0,0-.52-3.86c-.44-2.63-.79-5.27-1-7.93a72.45,72.45,0,0,1,.16-14.87.13.13,0,0,1,.25,0,135.45,135.45,0,0,0,1.2,20.53c.49,3.27,2.14,8.19-1.28,8.7s-5.74-7.73-6.16-10A75.49,75.49,0,0,1,294,209.41Z" transform="translate(-39.15 -39.54)"/><path class="cls-2" d="M300.9,238.41a21.1,21.1,0,0,1,.89,2.61,5.88,5.88,0,0,1,.37,2.14.15.15,0,0,1-.27.06,7.76,7.76,0,0,1-.92-2.08c-.3-.81-.62-1.61-.89-2.42A.44.44,0,0,1,300.9,238.41Z" transform="translate(-39.15 -39.54)"/><path class="cls-2" d="M337.62,224.79c-3.73-.37-7.56-.32-11-2s-5.75-5-7.54-8.37a27.69,27.69,0,0,1-2.48-6.56.09.09,0,0,0-.18,0,18.44,18.44,0,0,0,1.52,6.19,27.6,27.6,0,0,0,3,5.48,13.35,13.35,0,0,0,4.26,4,14.69,14.69,0,0,0,5.59,1.69,31.21,31.21,0,0,0,6.9,0A.22.22,0,0,0,337.62,224.79Z" transform="translate(-39.15 -39.54)"/><path class="cls-2" d="M342.75,247.07a35.31,35.31,0,0,1-1.11-5.56c-.1-1.87.89-3.48,1.45-5.2,2.19-6.7,1.3-14-1.09-20.54a73.32,73.32,0,0,0-5.15-10.72c-.05-.09-.18,0-.13.08,3.27,6.37,6.15,13.18,6.79,20.38a27.31,27.31,0,0,1-.95,10.33c-.48,1.58-1.39,3.11-1.53,4.77a17.43,17.43,0,0,0,.82,5.2c.48,2.08,1.94,8.38,2.58,10.5.06.18.37.15.34-.06C344.47,254.36,343.18,249,342.75,247.07Z" transform="translate(-39.15 -39.54)"/><path class="cls-2" d="M345.6,257.64c-4.65-.35-9.32-.34-14-.29s-9.22.11-13.84.21c-2.64.06-5.29.12-7.92.3a.13.13,0,1,0,0,.25c4.65.28,9.33.25,14,.29s9.23,0,13.84,0c2.65,0,5.28-.14,7.92-.36A.19.19,0,0,0,345.6,257.64Z" transform="translate(-39.15 -39.54)"/><path class="cls-11" d="M288.47,457.23c2.24.68,65.67-1.11,68-2.7.9-.6,1.18-9.86,1.2-21,0-2.42,0-4.9,0-7.45,0-3-.07-6-.12-9-.26-13.25-1.56-26-1.56-26l-40.47,2.16.65,24.91.24,9,.4,7.44s-24,11.55-26.39,13.58S286.24,456.55,288.47,457.23Z" transform="translate(-39.15 -39.54)"/><path class="cls-12" d="M288.47,457.23c2.24.68,65.67-1.11,68-2.7.9-.6,1.18-9.86,1.2-21,0-2.42,0-4.9,0-7.45,0-3-.07-6-.12-9l-41.38,1.05.24,9,.4,7.44s-24,11.55-26.39,13.58S286.24,456.55,288.47,457.23Z" transform="translate(-39.15 -39.54)"/><path class="cls-8" d="M288.28,457.33c1.46.44,28.48-.15,48.14-1.05,4.55-.21,8.71-.44,12.06-.67,4.62-.33,7.72-.66,8.22-1,1.1-.75,1.29-14.33,1.18-28.65l-41.5,1,.4,7.48s-24.11,11.61-26.54,13.65S286,456.63,288.28,457.33Z" transform="translate(-39.15 -39.54)"/><path class="cls-2" d="M289.12,454.75c10.68-.56,53.83-1.83,64.43-1.58.09,0,.09.06,0,.07-10.58.79-53.73,1.71-64.43,1.68C288.9,454.92,288.9,454.76,289.12,454.75Z" transform="translate(-39.15 -39.54)"/><path class="cls-2" d="M315.21,432.15c4.19-.9,9.35-.4,12.65,2.5.13.11,0,.29-.17.25a59.69,59.69,0,0,0-12.44-2.23A.26.26,0,0,1,315.21,432.15Z" transform="translate(-39.15 -39.54)"/><path class="cls-2" d="M312.22,434.07c4.18-.9,9.35-.4,12.65,2.5.13.11,0,.29-.17.25a59.69,59.69,0,0,0-12.44-2.23A.26.26,0,0,1,312.22,434.07Z" transform="translate(-39.15 -39.54)"/><path class="cls-2" d="M309.24,436c4.18-.9,9.35-.4,12.65,2.5.13.11,0,.29-.17.25a59.69,59.69,0,0,0-12.44-2.23A.26.26,0,0,1,309.24,436Z" transform="translate(-39.15 -39.54)"/><path class="cls-2" d="M306.25,437.9c4.18-.9,9.35-.4,12.65,2.5.13.11,0,.29-.17.25a59.69,59.69,0,0,0-12.44-2.23A.26.26,0,0,1,306.25,437.9Z" transform="translate(-39.15 -39.54)"/><path class="cls-2" d="M309.22,428.58c3,2.23,6.94,3.07,10.45,4.25a.53.53,0,0,0,.65-.54.1.1,0,0,0,.09-.15,22.37,22.37,0,0,0-6.75-9.45c-1.8-1.43-4.91-2.36-6.49,0S307.44,427.28,309.22,428.58Zm-1.17-3.35c-.87-4.6,4.15-2.31,5.44-1.21a23.2,23.2,0,0,1,2.3,2.35,66.66,66.66,0,0,1,4.06,5.43c-1.69-.69-3.42-1.23-5.13-1.85C312.67,429.2,308.53,427.76,308.05,425.23Z" transform="translate(-39.15 -39.54)"/><path class="cls-2" d="M334.27,425.33c-1.09-2.59-4.32-2.3-6.37-1.26a22.47,22.47,0,0,0-8.51,7.91.11.11,0,0,0,.06.17c-.06.31.14.71.52.66,3.68-.46,7.67-.5,11.09-2.07C333.07,429.82,335.3,427.78,334.27,425.33ZM325.41,431c-1.8.27-3.61.45-5.4.79a65.81,65.81,0,0,1,5.07-4.51,25,25,0,0,1,2.72-1.84c1.48-.82,6.86-2.06,5.08,2.27C331.91,430.07,327.56,430.65,325.41,431Z" transform="translate(-39.15 -39.54)"/><path class="cls-2" d="M320.65,109.34c7.88,8.13,4.51,18.6,7.55,24.73,1.86,3.75,8.63,8.15,9.67,12.37,1.7,6.93-4.21,8.82-3.28,12.59,1.33,5.34,8.29,5.58,8.76,14.15s-9.68,16.72-32,17.12-33.72-8.81-33.85-16.07,7.44-9,8.44-14.28c.64-3.4-3.68-6.2-3.33-12.53s6.69-7.81,8.06-13.08-.26-18.55,8.22-24.47S316.76,105.33,320.65,109.34Z" transform="translate(-39.15 -39.54)"/><path class="cls-2" d="M319.64,109.44a18.39,18.39,0,0,1,5.08,7.08,39.76,39.76,0,0,1,2.36,9,23.86,23.86,0,0,0,1.24,5.36A13.39,13.39,0,0,0,331,134.8c2.19,2.38,4.89,4.29,6.82,6.92s3.12,5.71,2,8.77c-.6,1.66-1.85,2.95-2.7,4.48s-1.24,3.3-.06,4.67c1,1.17,2.56,1.81,3.74,2.8a14,14,0,0,1,2.94,3.42,10.89,10.89,0,0,1,1.25,8.69c-1.93,6.75-8.75,10.07-14.93,12-.86.27-1.73.52-2.59.78-.13,0-.23-.16-.09-.2,6.22-2.12,13.45-4.62,16.36-11.09a10.14,10.14,0,0,0-.21-9,12.79,12.79,0,0,0-2.85-3.61c-1.12-1-2.46-1.67-3.6-2.63a4.06,4.06,0,0,1-1.54-3.8,9.92,9.92,0,0,1,2.05-4.24,8.19,8.19,0,0,0,1.84-4.5,9,9,0,0,0-1.36-4.58c-1.62-2.81-4.21-4.79-6.5-7a15,15,0,0,1-4.69-7.94c-.31-1.62-.45-3.27-.7-4.9a43,43,0,0,0-.91-4.49,20.91,20.91,0,0,0-4-8.13,12.13,12.13,0,0,0-1.69-1.67C319.49,109.5,319.57,109.39,319.64,109.44Z" transform="translate(-39.15 -39.54)"/><path class="cls-2" d="M277,168.89a8.25,8.25,0,0,1,1.83-3.08c.86-.9,1.86-1.64,2.8-2.46a6.32,6.32,0,0,0,2.08-2.82,6,6,0,0,0-.61-4.07,29.75,29.75,0,0,1-1.62-4,14.11,14.11,0,0,1-.46-4.2,14.27,14.27,0,0,1,3-8c.87-1.16,1.82-2.26,2.7-3.42a18,18,0,0,0,2.36-4.11c1.3-3.24,1.84-6.73,3-10a53.33,53.33,0,0,1,4.51-9.69c0-.08.16,0,.11.08a45.45,45.45,0,0,0-4,8.76c-1,2.89-1.52,5.88-2.32,8.82a22.17,22.17,0,0,1-1.52,4.2,22.89,22.89,0,0,1-2.26,3.52c-1.72,2.3-3.48,4.56-4.16,7.41a13.58,13.58,0,0,0,.66,8.4c1,2.3,2.36,4.88,1.11,7.36-1.06,2.1-3.26,3.21-4.8,4.89a8.8,8.8,0,0,0-2.14,6.85c.62,6.3,6.54,9.94,12.31,10.78a.14.14,0,0,1,0,.28c-5-.53-10.33-3.25-12.26-8.2A10.6,10.6,0,0,1,277,168.89Z" transform="translate(-39.15 -39.54)"/><path class="cls-11" d="M294.9,154.82c-20.56,2.56-57.46-4-57.4-13.58,0-6.61,6.25-27.17,19.37-36.74,1.94-1.41,16.22,19.43,13.69,21.64a30.12,30.12,0,0,0-6.29,8.91c-.49,1.22,20.34,6.5,28.53,9.26C308,149.42,300.63,154.11,294.9,154.82Z" transform="translate(-39.15 -39.54)"/><path class="cls-8" d="M269.15,128.78l-24-13.25s-12.51,25.81-6.26,32,40,10,53.64,8.24,11.49-7.61,2.16-11.36-28.47-9.38-28.57-9.63S269.15,128.78,269.15,128.78Z" transform="translate(-39.15 -39.54)"/><path class="cls-9" d="M269.15,128.78l-24-13.25s-12.51,25.81-6.26,32,40,10,53.64,8.24,11.49-7.61,2.16-11.36-28.47-9.38-28.57-9.63S269.15,128.78,269.15,128.78Z" transform="translate(-39.15 -39.54)"/><path class="cls-5" d="M242.34,135.57a8.6,8.6,0,0,1-.37-4.38,8.6,8.6,0,0,1,.37,4.38Z" transform="translate(-39.15 -39.54)"/><path class="cls-5" d="M270.94,147.78a8.6,8.6,0,0,1-.37-4.38,8.6,8.6,0,0,1,.37,4.38Z" transform="translate(-39.15 -39.54)"/><path class="cls-5" d="M257.75,151.43a8.6,8.6,0,0,1,4.38-.37,8.6,8.6,0,0,1-4.38.37Z" transform="translate(-39.15 -39.54)"/><path class="cls-5" d="M280,142.25a8.6,8.6,0,0,1,4.38-.37,8.6,8.6,0,0,1-4.38.37Z" transform="translate(-39.15 -39.54)"/><path class="cls-5" d="M294.25,151.6a7.8,7.8,0,0,1-1.86-1.2,8.06,8.06,0,0,1-1.5-1.63,7.51,7.51,0,0,1,1.86,1.2A8.06,8.06,0,0,1,294.25,151.6Z" transform="translate(-39.15 -39.54)"/><path class="cls-5" d="M242.15,147a7.51,7.51,0,0,1-1.86-1.2,8.06,8.06,0,0,1-1.5-1.63,7.51,7.51,0,0,1,1.86,1.2A7.78,7.78,0,0,1,242.15,147Z" transform="translate(-39.15 -39.54)"/><path class="cls-5" d="M263.3,135.7a7.8,7.8,0,0,1-1.86-1.2,8.06,8.06,0,0,1-1.5-1.63,7.51,7.51,0,0,1,1.86,1.2A8.06,8.06,0,0,1,263.3,135.7Z" transform="translate(-39.15 -39.54)"/><path class="cls-5" d="M281.45,151.25a7.8,7.8,0,0,1-1.2,1.86,8.06,8.06,0,0,1-1.63,1.5,8.74,8.74,0,0,1,2.83-3.36Z" transform="translate(-39.15 -39.54)"/><path class="cls-5" d="M254.94,122.92a7.8,7.8,0,0,1-1.2,1.86,8.06,8.06,0,0,1-1.63,1.5,7.51,7.51,0,0,1,1.2-1.86A7.8,7.8,0,0,1,254.94,122.92Z" transform="translate(-39.15 -39.54)"/><path class="cls-5" d="M253.52,140.7a7.8,7.8,0,0,1-1.2,1.86,8.06,8.06,0,0,1-1.63,1.5,7.51,7.51,0,0,1,1.2-1.86A8.06,8.06,0,0,1,253.52,140.7Z" transform="translate(-39.15 -39.54)"/><path class="cls-2" d="M243.51,121.07c10.27,4.61,20.42,11,22.26,12,.09,0,0,.18-.08.13-1.76-1.07-14.11-7.14-22.27-12C243.33,121.16,243.41,121,243.51,121.07Z" transform="translate(-39.15 -39.54)"/><path class="cls-8" d="M339.43,202.94l-51.23,0-.42-15s-4.33-5.79-4-12.23c.32-6.85,13.42-24.82,14.48-25.82,4.23-4,11.2-4.36,14.62-1.49C331.17,163.81,339.43,202.94,339.43,202.94Z" transform="translate(-39.15 -39.54)"/><path class="cls-2" d="M307.67,184.85a48.21,48.21,0,0,0-8,.79c-1.32.27-2.62.6-3.92,1-.65.18-1.3.34-2,.49a7.3,7.3,0,0,1-2.07.26.06.06,0,0,0,0,.11,12.83,12.83,0,0,0,2,.14,12.34,12.34,0,0,0,1.9-.24c1.34-.25,2.67-.58,4-.85,2.7-.55,5.4-1.09,8.12-1.41C307.81,185.09,307.8,184.85,307.67,184.85Z" transform="translate(-39.15 -39.54)"/><path class="cls-2" d="M314,188.18a50,50,0,0,0-6.55-1c-1.1-.08-2.2-.09-3.31-.07-.53,0-1.06,0-1.58.06s-1.16.16-1.74.18c-.06,0-.07.11,0,.11.55,0,1.1.1,1.64.13l1.65.1,3.3.21c2.2.11,4.39.25,6.59.45C314.08,188.4,314.08,188.2,314,188.18Z" transform="translate(-39.15 -39.54)"/><polygon class="cls-12" points="247.52 166.83 302.15 166.83 301.15 161.68 248.52 161.68 247.52 166.83"/><path class="cls-13" d="M318.06,198.58c-1.78-1.38-30.49-1.29-31.73,0-1.61,1.63.06,14.79,1.25,15.24,2.3.88,26.71.75,28.61,0S319.81,199.94,318.06,198.58Z" transform="translate(-39.15 -39.54)"/><path class="cls-6" d="M312.33,204.79a7.1,7.1,0,0,0-1.83-.32q-.93-.08-1.86-.12c-1.24-.06-2.49-.09-3.73-.11-2.49,0-5,0-7.47.09a73.37,73.37,0,0,0-7.43.52,4.07,4.07,0,0,0-.85.21c-.15,0-.23.35-.26.63a8.45,8.45,0,0,0,.05,1.81,15.91,15.91,0,0,0,.81,3.58,2.24,2.24,0,0,0,.38.71s.18,0,.3.05l.46,0,1.86.07,3.73.08,7.47.12h3.74l1.87,0,.93,0c.3,0,.63,0,.84-.26a4.36,4.36,0,0,0,.86-1.62,12.3,12.3,0,0,0,.46-1.81,10.45,10.45,0,0,0,.18-1.85,4.87,4.87,0,0,0-.08-.93A1.18,1.18,0,0,0,312.33,204.79Zm0,0a1.18,1.18,0,0,1,.43.8,5.86,5.86,0,0,1,.09.93,10.55,10.55,0,0,1-.17,1.86,11.8,11.8,0,0,1-.45,1.82,4.54,4.54,0,0,1-.86,1.66,1.3,1.3,0,0,1-.89.3l-.93.06-1.87.08-3.74.09c-2.49,0-5,.07-7.48.06l-3.74,0-1.87,0-.48,0c-.17,0-.34,0-.58-.17a2.53,2.53,0,0,1-.53-.91,16.38,16.38,0,0,1-.8-3.71,9.45,9.45,0,0,1,0-1.92,1.82,1.82,0,0,1,.12-.5.78.78,0,0,1,.41-.47,4,4,0,0,1,1-.23,69.54,69.54,0,0,1,7.49-.35c2.49,0,5,0,7.48.09,1.25,0,2.49.08,3.74.15.62,0,1.24.08,1.86.14A6.65,6.65,0,0,1,312.33,204.79Z" transform="translate(-39.15 -39.54)"/><rect class="cls-1" x="250.74" y="166.82" width="20.38" height="0.91"/><path class="cls-6" d="M310.14,206.82c-3.33.11-6.66.08-10,.12s-6.66,0-10-.12c3.33-.11,6.66-.08,10-.12S306.81,206.71,310.14,206.82Z" transform="translate(-39.15 -39.54)"/><path class="cls-1" d="M310.85,210l1.69-1.15-2.19-2.53-1.07.73Zm-.39-3.1a.4.4,0,0,1-.1.54.39.39,0,0,1-.55-.1.39.39,0,0,1,.11-.56A.38.38,0,0,1,310.46,206.88Zm.28,2.31c-.12-.18,0-.49.34-.7s.66-.23.78-.06,0,.49-.34.7S310.86,209.37,310.74,209.19Z" transform="translate(-39.15 -39.54)"/><path class="cls-1" d="M318.72,201.77l1.69-1.15-2.19-2.53-1.07.73Zm-.39-3.1a.4.4,0,0,1-.1.54.39.39,0,0,1-.55-.1.39.39,0,0,1,.11-.56A.4.4,0,0,1,318.33,198.67Zm.28,2.32c-.12-.18,0-.49.34-.7s.66-.23.78-.06,0,.49-.34.7S318.73,201.16,318.61,201Z" transform="translate(-39.15 -39.54)"/><path class="cls-11" d="M309.29,151c-.44,1-6.64,6.63-11.26,5.48-1.5-.38.19-8.68.19-8.68l0-.64-.21-9,11.39-4.47,1.63-.57s-.1,2.46-.27,5.52c0,.14,0,.28,0,.44s0,.34,0,.5c0,.46,0,.93-.07,1.39s0,.7-.08,1.07l-.09,1.11A53.91,53.91,0,0,1,309.29,151Z" transform="translate(-39.15 -39.54)"/><path class="cls-2" d="M310.75,138.63a18,18,0,0,1-12.55,8.49l-.21-9,11.39-4.47,1.63-.57S310.91,135.57,310.75,138.63Z" transform="translate(-39.15 -39.54)"/><path class="cls-11" d="M287.53,123.38c-3.86,15.29,4.86,19.33,8.16,20.16,3,.75,13.28,2.94,18.7-11.87s-.47-21.44-7.22-23.52S291.39,108.09,287.53,123.38Z" transform="translate(-39.15 -39.54)"/><path class="cls-2" d="M291.36,121.14c.37,0,.73,0,1.1,0a1.8,1.8,0,0,0,1.12-.22.58.58,0,0,0,.14-.68,1.39,1.39,0,0,0-1.29-.6,2,2,0,0,0-1.42.45A.61.61,0,0,0,291.36,121.14Z" transform="translate(-39.15 -39.54)"/><path class="cls-2" d="M301.75,123.83c-.36-.12-.67-.29-1-.44a1.7,1.7,0,0,1-.94-.65.58.58,0,0,1,.14-.68,1.39,1.39,0,0,1,1.42,0,2.11,2.11,0,0,1,1.12,1A.6.6,0,0,1,301.75,123.83Z" transform="translate(-39.15 -39.54)"/><path class="cls-2" d="M298.86,126.38s.07.07.06.11c-.31,1-.5,2.28.36,2.88,0,0,0,.07,0,.06C298.14,129,298.4,127.31,298.86,126.38Z" transform="translate(-39.15 -39.54)"/><path class="cls-2" d="M300.09,125.53c1.72.32,1,3.74-.64,3.44S298.65,125.26,300.09,125.53Z" transform="translate(-39.15 -39.54)"/><path class="cls-2" d="M300.72,125.87c.25.26.47.67.82.78s.8-.15,1.15-.44c0,0,.06,0,.05.05-.14.66-.54,1.27-1.26,1.21s-1-.74-1-1.43C300.47,125.92,300.62,125.76,300.72,125.87Z" transform="translate(-39.15 -39.54)"/><path class="cls-2" d="M297.21,135c-.29.21-.6.52-1,.5a2.81,2.81,0,0,1-1.11-.44,0,0,0,0,0-.05,0,1.46,1.46,0,0,0,1.28.78,1.14,1.14,0,0,0,1-.83C297.33,135,297.25,135,297.21,135Z" transform="translate(-39.15 -39.54)"/><path class="cls-2" d="M293.55,130.27s-.54,1.54-.7,2.29c0,.07.16.14.41.21h0a3.64,3.64,0,0,0,3.73-.62c.07-.06,0-.16-.09-.13a5.5,5.5,0,0,1-3.44.27c0-.22,1-2.61.9-2.64a6.33,6.33,0,0,0-1.78,0c1-3.25,2.59-6.3,3.58-9.55a.11.11,0,0,0-.19-.09,55.68,55.68,0,0,0-4.29,10.12C291.57,130.59,293.22,130.34,293.55,130.27Z" transform="translate(-39.15 -39.54)"/><path class="cls-2" d="M293.39,132.51a4.39,4.39,0,0,0,1.35,1.77,2,2,0,0,0,1.14.38c.9,0,1.13-.76,1.15-1.46a4.59,4.59,0,0,0-.11-1.11A5.7,5.7,0,0,1,293.39,132.51Z" transform="translate(-39.15 -39.54)"/><path class="cls-14" d="M294.74,134.28a2,2,0,0,0,1.14.38c.9,0,1.13-.76,1.15-1.46A2.06,2.06,0,0,0,294.74,134.28Z" transform="translate(-39.15 -39.54)"/><path class="cls-2" d="M289.46,123.58a3.7,3.7,0,0,1,.94,0,3.57,3.57,0,0,1,.92.31,2.82,2.82,0,0,1,.8.63,2.52,2.52,0,0,1,.47.94l.15.62-.6-.23a6.43,6.43,0,0,0-1.32-.36,2.81,2.81,0,0,0-1.4.1,2.07,2.07,0,0,1,1.41-.6,3.92,3.92,0,0,1,1.55.23l-.45.39a2.33,2.33,0,0,0-.9-1.24A7.75,7.75,0,0,0,289.46,123.58Z" transform="translate(-39.15 -39.54)"/><path class="cls-2" d="M290.57,126.52a6.14,6.14,0,0,0,1.48-.14c.11,0,.57-.21.56-.29a3.08,3.08,0,0,0-.06-.73,1.85,1.85,0,0,1,.2.75.94.94,0,0,1-.65.49A3.11,3.11,0,0,1,290.57,126.52Z" transform="translate(-39.15 -39.54)"/><path class="cls-2" d="M312.72,132.41c-3.78-.9-2.55-12.83-2.38-14.29-.15.92-1,5.76-1.39,5.88a3.7,3.7,0,0,1-1.15-.47h0a12.14,12.14,0,0,0,.21-1.75c0-.27-.22.56-.57,1.57l-.66-.34a14,14,0,0,0,.37-3.74c0-.48-.55,1.55-1.35,3.25a46.41,46.41,0,0,0-9.62-3.75c-.94-.23-1.77-.38-2.5-.49.28-1.42.75-2.91.58-2.6a13.56,13.56,0,0,0-1.12,2.53c-.4-.06-.77-.1-1.1-.13.3-2,1.9-5,1.48-4.62a14.6,14.6,0,0,0-2.93,4.56c-1.42,0-1.86.18-1.82-.18a17.06,17.06,0,0,1,7.18-9.37c5.66-3.53,15.38-2.76,19.35,5.22,0,0,3.83,3.76,3.6,8.54S314.91,132.93,312.72,132.41Z" transform="translate(-39.15 -39.54)"/><path class="cls-10" d="M304.8,111.78c0,1.65,2.73,3,6.08,3s6.06-1.36,6.06-3-2.73-3-6.08-3S304.79,110.13,304.8,111.78Z" transform="translate(-39.15 -39.54)"/><path class="cls-2" d="M306.13,111.44c0,1.25,2.07,2.26,4.62,2.25s4.61-1,4.6-2.29-2.07-2.26-4.62-2.25S306.12,110.18,306.13,111.44Z" transform="translate(-39.15 -39.54)"/><path class="cls-10" d="M306.15,110.17l1-.42c-1.06-2.42-3.87-2.56-5.21-2.29l.2,1C302.22,108.46,305.17,107.92,306.15,110.17Z" transform="translate(-39.15 -39.54)"/><path class="cls-10" d="M316.71,133c0-.17.71-4.11.79-4.89s-3.72-14.45-3.76-14.53l-.45.26-.49.17c.25.76,3.65,13.1,3.67,14-.08.72-.77,4.76-.78,4.8Z" transform="translate(-39.15 -39.54)"/><path class="cls-10" d="M291.61,107c0,1.65,2.73,3,6.08,3s6.06-1.36,6.06-3-2.73-3-6.08-3S291.61,105.38,291.61,107Z" transform="translate(-39.15 -39.54)"/><path class="cls-2" d="M293,106.78C293,108,295,109,297.59,109s4.61-1,4.6-2.29-2.07-2.26-4.62-2.25S293,105.52,293,106.78Z" transform="translate(-39.15 -39.54)"/><path class="cls-11" d="M310.9,131s4.19-4.31,6.19-2.74-1.69,8.2-4.43,8.74a2.68,2.68,0,0,1-3.3-2Z" transform="translate(-39.15 -39.54)"/><path class="cls-2" d="M316,130.17s0,.06,0,.07c-1.93.44-3.16,2-4.11,3.6a1.47,1.47,0,0,1,2.24,0s0,.11-.07.09a1.62,1.62,0,0,0-1.87.28,8.53,8.53,0,0,0-1.09,1.3c-.11.15-.39,0-.3-.16,0,0,0,0,0,0C311.14,133,313.46,130,316,130.17Z" transform="translate(-39.15 -39.54)"/><path class="cls-11" d="M315.83,150.94c19.56,20.37,48.09,71.94,51.61,79.33,2.39,5-23.85,18.25-25,14.6-1.43-4.68-24.29-62.39-30.36-84.17C308.77,148.7,311.79,146.74,315.83,150.94Z" transform="translate(-39.15 -39.54)"/><path class="cls-11" d="M341.24,241.43c.91,2.5,4,13.12,6.21,14.44s13.62,1,19.38,1,6.9-1.61,6.8-3.59S361.44,251,361.44,251s16.16,4.63,20.22,5.39,13.43,3.12,14.78-.25c.61-1.52-1.95-3.06-1.95-3.06s3.93,1.15,4.55-.81c.71-2.22-2.41-3.45-2.41-3.45s2.45.49,2.51-1.32c.13-4.05-15.24-6-15.24-6s11.76,5.73,12.14,2.42c.52-4.57-23.59-9.59-26.1-11.58a17,17,0,0,1-4-5Z" transform="translate(-39.15 -39.54)"/><path class="cls-2" d="M373.55,254.33a1.75,1.75,0,0,0-.55-1.54,5,5,0,0,0-1.41-.91,19.28,19.28,0,0,0-3.3-1.07c-2.27-.58-4.6-1-6.92-1.58a28.09,28.09,0,0,1,7.12.8,13,13,0,0,1,3.4,1.3,4.73,4.73,0,0,1,1.42,1.22A1.79,1.79,0,0,1,373.55,254.33Z" transform="translate(-39.15 -39.54)"/><path class="cls-2" d="M394.49,253c-1.66-.41-3.3-.88-4.94-1.35s-3.26-1-4.89-1.46l-4.87-1.52c-1.62-.51-3.24-1-4.88-1.5a39.27,39.27,0,0,1,5,.9c1.67.38,3.31.86,4.94,1.35s3.25,1,4.84,1.65S392.94,252.32,394.49,253Z" transform="translate(-39.15 -39.54)"/><path class="cls-2" d="M378.82,243.16a33.26,33.26,0,0,1,4.66.64A44.83,44.83,0,0,1,388,245a40.25,40.25,0,0,1,4.41,1.65,33,33,0,0,1,4.18,2.16c-1.49-.51-2.93-1.08-4.41-1.58s-2.94-1-4.43-1.46-3-.9-4.46-1.34S380.33,243.57,378.82,243.16Z" transform="translate(-39.15 -39.54)"/><path class="cls-2" d="M381.2,239.31a31.24,31.24,0,0,1,14.24,4.88c-2.39-.85-4.71-1.75-7.09-2.54S383.61,240.08,381.2,239.31Z" transform="translate(-39.15 -39.54)"/><path class="cls-8" d="M312.36,166.35c4.64,20,26.83,74.56,26.83,74.56l19.93-9.61,10.06-4.85S335,173,321,155.47c-1.08-1.34-2.07-2.5-3-3.46C309.31,142.74,308.78,151,312.36,166.35Z" transform="translate(-39.15 -39.54)"/><path class="cls-9" d="M312.36,166.35c4.64,20,26.83,74.56,26.83,74.56l19.93-9.61,10.06-4.85S335,173,321,155.47c-1.08-1.34-2.07-2.5-3-3.46C309.31,142.74,308.78,151,312.36,166.35Z" transform="translate(-39.15 -39.54)"/><path class="cls-5" d="M358.41,221.56a8.6,8.6,0,0,1-.37-4.38,8.6,8.6,0,0,1,.37,4.38Z" transform="translate(-39.15 -39.54)"/><path class="cls-5" d="M314.91,154a8.6,8.6,0,0,1-.37-4.38,8.6,8.6,0,0,1,.37,4.38Z" transform="translate(-39.15 -39.54)"/><path class="cls-5" d="M343.07,211.6a8.6,8.6,0,0,1,4.38-.37,8.6,8.6,0,0,1-4.38.37Z" transform="translate(-39.15 -39.54)"/><path class="cls-5" d="M330,184.54a8.6,8.6,0,0,1,4.38-.37,8.6,8.6,0,0,1-4.38.37Z" transform="translate(-39.15 -39.54)"/><path class="cls-5" d="M348,199.16a7.51,7.51,0,0,1-1.86-1.2,8.06,8.06,0,0,1-1.5-1.63,7.51,7.51,0,0,1,1.86,1.2A8.06,8.06,0,0,1,348,199.16Z" transform="translate(-39.15 -39.54)"/><path class="cls-5" d="M323.34,166.67a7.8,7.8,0,0,1-1.86-1.2,8.06,8.06,0,0,1-1.5-1.63,7.51,7.51,0,0,1,1.86,1.2A8.06,8.06,0,0,1,323.34,166.67Z" transform="translate(-39.15 -39.54)"/><path class="cls-5" d="M334.69,222.64a7.8,7.8,0,0,1-1.86-1.2,8.06,8.06,0,0,1-1.5-1.63,7.51,7.51,0,0,1,1.86,1.2A8.06,8.06,0,0,1,334.69,222.64Z" transform="translate(-39.15 -39.54)"/><path class="cls-5" d="M333.48,199.54a7.8,7.8,0,0,1-1.2,1.86,8.06,8.06,0,0,1-1.63,1.5,7.51,7.51,0,0,1,1.2-1.86A8.06,8.06,0,0,1,333.48,199.54Z" transform="translate(-39.15 -39.54)"/><path class="cls-5" d="M349.72,228.91a7.8,7.8,0,0,1-1.2,1.86,8.06,8.06,0,0,1-1.63,1.5,7.51,7.51,0,0,1,1.2-1.86A7.78,7.78,0,0,1,349.72,228.91Z" transform="translate(-39.15 -39.54)"/><path class="cls-5" d="M322.46,174.56a7.8,7.8,0,0,1-1.2,1.86,8.06,8.06,0,0,1-1.63,1.5,7.51,7.51,0,0,1,1.2-1.86A7.8,7.8,0,0,1,322.46,174.56Z" transform="translate(-39.15 -39.54)"/><path class="cls-2" d="M337.53,235c11.73-6.81,25.09-12.18,27.35-13.28.11-.05.18.13.07.17-2.27,1-16.88,8.77-27.34,13.3A.1.1,0,0,1,337.53,235Z" transform="translate(-39.15 -39.54)"/><path class="cls-11" d="M254.19,106.62s13.38-12,23.14-14.68c4.08-1.1,22-1.88,22.34,2.45.31,3.92-15.15,2.83-15.15,2.83s15.69-.29,15.19,4.5-17.8,1.24-17.8,1.24,16.13.07,14.83,4.92c-1,3.67-16.83,1.34-16.83,1.34s13.86.16,13,4c-.93,4.21-15.7,3-15.7,3-1.57,7.09-4.52,10.28-8.76,11.87C267.45,128.41,254.19,106.62,254.19,106.62Z" transform="translate(-39.15 -39.54)"/><path class="cls-2" d="M279.08,97c1.84-.1,3.71-.21,5.55-.15s3.69.19,5.52.43a32.28,32.28,0,0,1,7,1.59c-4.14-1.12-10.74-1.45-12.59-1.52s-3.68-.22-5.52-.29C279,97,279,97,279.08,97Z" transform="translate(-39.15 -39.54)"/><path class="cls-2" d="M278.73,103.63c2.36,0,4.7-.14,7.06-.06s4.57.36,6.91.6c.18,0,.11.11-.07.1-2.34-.15-4.52-.1-6.87-.22s-4.69-.33-7-.36A0,0,0,0,1,278.73,103.63Z" transform="translate(-39.15 -39.54)"/><path class="cls-2" d="M277.4,109.29a53.56,53.56,0,0,1,10.8.73c.18,0,.07.13-.11.12-3.58-.31-6.4-.58-10.68-.72C277.34,109.41,277.33,109.29,277.4,109.29Z" transform="translate(-39.15 -39.54)"/></g><g id="Character_1" data-name="Character 1"><path class="cls-10" d="M173,203.81c-.56.92-55.64,10.17-58.37,9.74a1.51,1.51,0,0,1-.38-.11c-3.45-1.13-20.24-13.15-21.52-14.17-3.15-2.53,6-24.12,9.23-27.9,2.18-2.52,6.62-3.94,6.62-3.94s8.31-38.59,15.27-47.31c1.75-2.19,36-7.15,42.48-5.1,2.77.88,10,6.63,10.28,7.77h0C177,124.49,173.54,202.88,173,203.81Z" transform="translate(-39.15 -39.54)"/><path class="cls-7" d="M173,203.81c-.56.92-55.64,10.17-58.37,9.74a1.51,1.51,0,0,1-.38-.11c3.55-15,20.27-85.39,20.93-85.91s33.5-4.34,41.43-4.73C177,124.49,173.54,202.88,173,203.81Z" transform="translate(-39.15 -39.54)"/><path class="cls-8" d="M177.83,111.32c-.24,5-2,9.05-4,9.44v0l-46.45,4.09.88-19.3,45.35-4a1.7,1.7,0,0,1,.7-.12,1.07,1.07,0,0,1,.25,0h.16v0C176.68,102.15,178.05,106.33,177.83,111.32Z" transform="translate(-39.15 -39.54)"/><path class="cls-9" d="M177.83,111.32c-.24,5-2,9.05-4,9.44v0l-46.45,4.09.88-19.3,45.35-4a1.7,1.7,0,0,1,.7-.12,1.07,1.07,0,0,1,.25,0h.16v0C176.68,102.15,178.05,106.33,177.83,111.32Z" transform="translate(-39.15 -39.54)"/><ellipse class="cls-8" cx="127.79" cy="115.25" rx="9.66" ry="3.98" transform="translate(-32.34 198.1) rotate(-87.37)"/><path class="cls-15" d="M233.17,443.79c-2.34.75-71.31-.11-73.82-1.76-1-.61,3.88-65.5,3.88-65.5l44.57.45-4.74,43.41s25.36,11.74,27.93,13.84S235.51,443.05,233.17,443.79Z" transform="translate(-39.15 -39.54)"/><path class="cls-5" d="M233.17,443.79c-2.33.76-71.31-.11-73.82-1.75-.45-.27.34-14.2,1.32-29.14h43.21l-.82,7.5s25.36,11.74,27.93,13.84S235.52,443.05,233.17,443.79Z" transform="translate(-39.15 -39.54)"/><path class="cls-8" d="M233.93,444.74c-2.46.8-72.1.15-74.76-1.58-1-.64.45-23.61.45-23.74H202.7l0,.77s26.77,12.27,29.49,14.48S236.39,444,233.93,444.74Z" transform="translate(-39.15 -39.54)"/><path class="cls-2" d="M233.74,442c-11.84-.4-59.61-.9-71.34-.4-.1,0-.1.07,0,.07,11.72.65,59.5.77,71.34.52C234,442.2,234,442,233.74,442Z" transform="translate(-39.15 -39.54)"/><path class="cls-2" d="M207,420.78c-4.65-.91-10.35-.25-13.95,3-.14.13,0,.32.2.28A64.72,64.72,0,0,1,207,421.38.31.31,0,0,0,207,420.78Z" transform="translate(-39.15 -39.54)"/><path class="cls-2" d="M210.31,422.84c-4.65-.91-10.35-.25-13.94,3-.14.13,0,.32.2.28a64.72,64.72,0,0,1,13.73-2.72A.31.31,0,0,0,210.31,422.84Z" transform="translate(-39.15 -39.54)"/><path class="cls-2" d="M213.65,424.9c-4.65-.91-10.35-.25-14,3-.14.13,0,.32.2.28a64.72,64.72,0,0,1,13.73-2.72A.3.3,0,0,0,213.65,424.9Z" transform="translate(-39.15 -39.54)"/><path class="cls-2" d="M224.89,431a10,10,0,0,0-7.42,3,9.67,9.67,0,0,0-2.79,6.61c0,.07.14.08.15,0a11.5,11.5,0,0,1,10.06-9.46A.08.08,0,1,0,224.89,431Z" transform="translate(-39.15 -39.54)"/><path class="cls-5" d="M167,430.42c-5.56,0-5.57,8.65,0,8.65S172.54,430.42,167,430.42Z" transform="translate(-39.15 -39.54)"/><path class="cls-10" d="M207.56,418.56h-48s8-111.28,7.73-112.78c-.48-2.51-3.31-13.85-7.08-28.67-1.18-4.64-2.46-9.61-3.78-14.77-3.58-13.94-7.52-29.18-11-42.44-5.16-19.87-9.18-35.3-9.18-35.3H177s4.74,15,10.71,34.57c9.73,31.77,22.74,75.5,24,86.13C213.26,318.18,207.56,418.56,207.56,418.56Z" transform="translate(-39.15 -39.54)"/><path class="cls-2" d="M205.33,409.81c-7.32-.15-5.21-.21-12.53-.28-3.58,0-27.11-.24-30.46.31-.07,0-.07.14,0,.15,3.35.55,26.88.35,30.46.31,7.32-.07,5.22-.13,12.53-.28A.11.11,0,1,0,205.33,409.81Z" transform="translate(-39.15 -39.54)"/><path class="cls-2" d="M143.69,190.12l7.46,26.27,7.28,26.32c2.42,8.77,4.76,17.57,7.1,26.37s4.64,17.61,6.79,26.46c.52,2.22,1.05,4.43,1.48,6.68.12.56.2,1.14.3,1.71,0,.31.06.66.05,1l-.07.85-6.37,96.93,0,.29-.54-.33,5.88-97,.06-.85c0-.27,0-.49-.05-.75-.1-.55-.17-1.1-.29-1.65-.44-2.21-1-4.43-1.49-6.64-4.27-17.68-9-35.26-13.64-52.86Z" transform="translate(-39.15 -39.54)"/><path class="cls-2" d="M176,184.6c-2.82,21.84-13,58.13-17,87.84-9.17-36-22.73-87.84-22.73-87.84Z" transform="translate(-39.15 -39.54)"/><path class="cls-15" d="M78,443.45c2.36.73,60.29,1,62.8-.68,1-.62,1.31-10.39,1.38-22.21v-.37c0-2.43,5.62-43.35,5.62-43.35l-43.76.89-5.06,43,0,.73s-16.34,10.24-18.91,12.38S75.62,442.72,78,443.45Z" transform="translate(-39.15 -39.54)"/><path class="cls-5" d="M143,412.9c-.49,3.91-.81,6.71-.81,7.29v.37c-.08,11.81-.42,21.58-1.38,22.2-2.51,1.68-60.45,1.42-62.81.69s-.45-7.51,2.1-9.63S99,421.44,99,421.44l0-.73.92-7.8H143Z" transform="translate(-39.15 -39.54)"/><path class="cls-8" d="M75.11,444.74c2.46.8,64.77.15,67.42-1.58,1-.64-.45-23.61-.45-23.74H99l0,.77s-19.43,12.27-22.15,14.48S72.65,444,75.11,444.74Z" transform="translate(-39.15 -39.54)"/><path class="cls-2" d="M75.3,442c11.84-.4,52.27-.9,64-.4.1,0,.1.07,0,.07-11.72.65-52.16.77-64,.52C75.05,442.2,75.05,442,75.3,442Z" transform="translate(-39.15 -39.54)"/><path class="cls-2" d="M102.5,420.88c5.9-1.63,13.25-1.62,18,1.62.19.13,0,.37-.23.34a92.6,92.6,0,0,0-17.74-1.3A.33.33,0,0,1,102.5,420.88Z" transform="translate(-39.15 -39.54)"/><path class="cls-2" d="M98.34,423.63c5.9-1.63,13.25-1.62,18,1.62.19.13,0,.37-.23.34a92.6,92.6,0,0,0-17.74-1.3A.33.33,0,1,1,98.34,423.63Z" transform="translate(-39.15 -39.54)"/><path class="cls-2" d="M94.17,426.38c5.9-1.63,13.25-1.62,18,1.62.19.13,0,.37-.23.34A92.6,92.6,0,0,0,94.24,427,.33.33,0,0,1,94.17,426.38Z" transform="translate(-39.15 -39.54)"/><path class="cls-2" d="M80.61,433.75a16.16,16.16,0,0,1,13-.9c3.44,1.35,7,3.85,8.76,7.65.05.11-.15.21-.22.11-4.49-6.55-14-9.6-21.38-6.63A.13.13,0,0,1,80.61,433.75Z" transform="translate(-39.15 -39.54)"/><path class="cls-5" d="M138.25,428.21c4.36,0,4.36,8.65,0,8.65S133.89,428.21,138.25,428.21Z" transform="translate(-39.15 -39.54)"/><path class="cls-10" d="M176,184.6s-6.17,37.58-6.59,38.79c0,0-2.29,1.09-6.43,3l-16.86,192-48.22.19,25.47-234H176Z" transform="translate(-39.15 -39.54)"/><path class="cls-2" d="M144.46,409.79c-7.37-.12-5.25-.19-12.62-.23-3.61,0-27.29-.12-30.66.45-.07,0-.07.14,0,.15,3.37.54,27.06.24,30.66.19,7.37-.1,5.25-.15,12.61-.34C144.6,410,144.6,409.79,144.46,409.79Z" transform="translate(-39.15 -39.54)"/><path class="cls-2" d="M171,223a82.61,82.61,0,0,0-13.11,6.11c-.16.09-.06.35.12.27,4.42-1.9,8.92-3.71,13.23-5.85A.29.29,0,0,0,171,223Z" transform="translate(-39.15 -39.54)"/><path class="cls-2" d="M172.45,192.72c0-.15-.28-.19-.28,0a146.71,146.71,0,0,1-.74,14.76c-.21,2.28-2,14.85-6,13.93-.66-.15-1-.8-1.1-1.8a16.45,16.45,0,0,1,.52-3.86c.44-2.63.79-5.27,1-7.93a72.45,72.45,0,0,0-.16-14.87.13.13,0,0,0-.25,0,135.45,135.45,0,0,1-1.2,20.53c-.49,3.27-2.14,8.19,1.28,8.7s5.74-7.73,6.16-10A75.48,75.48,0,0,0,172.45,192.72Z" transform="translate(-39.15 -39.54)"/><path class="cls-2" d="M165.55,221.73a21.1,21.1,0,0,0-.89,2.61,5.88,5.88,0,0,0-.37,2.14.15.15,0,0,0,.27.06,7.76,7.76,0,0,0,.92-2.08c.3-.81.62-1.61.89-2.42A.44.44,0,0,0,165.55,221.73Z" transform="translate(-39.15 -39.54)"/><polygon class="cls-2" points="122.84 191.67 120.26 213.73 117.57 235.77 112.02 279.84 102.17 365.88 111 279.71 116.78 235.67 119.76 213.66 122.84 191.67"/><path class="cls-2" d="M126.44,217.48c3.73-.37,7.56-.32,11-2s5.75-5,7.54-8.37a27.69,27.69,0,0,0,2.48-6.56.09.09,0,0,1,.18,0,18.44,18.44,0,0,1-1.52,6.19,27.6,27.6,0,0,1-3,5.48,13.35,13.35,0,0,1-4.26,4,14.69,14.69,0,0,1-5.59,1.69,31.21,31.21,0,0,1-6.9,0A.22.22,0,0,1,126.44,217.48Z" transform="translate(-39.15 -39.54)"/><path class="cls-15" d="M163.32,140.4c2.29,10.25,11.62,40.86,21.36,44.71,6.39,2.53,32.62,7.47,39.42,3.38,2.65-1.6,3-23.88-.69-23.7s-25.64-.52-28.15-1.72-18.54-27.21-25-34.07C159.15,117.15,162.09,134.88,163.32,140.4Z" transform="translate(-39.15 -39.54)"/><path class="cls-8" d="M186.06,148.69l-18.67,16.73s-6.77-26.73-6.55-35.15c.25-9.48,5-7.28,11.3-.79S186.06,148.69,186.06,148.69Z" transform="translate(-39.15 -39.54)"/><path class="cls-2" d="M182.75,145.94c-.73.48-6.59,5.65-7.84,6.8s-6.4,5.81-7.6,7.1a.06.06,0,0,0,.08.1c1.41-1,6.62-5.72,7.92-6.87s7-6.39,7.53-7C182.88,146,182.8,145.91,182.75,145.94Z" transform="translate(-39.15 -39.54)"/><path class="cls-9" d="M183.45,151l-16.06,14.4s-6.77-26.73-6.54-35.15c.16-5.92,2.09-7.29,5-5.89C169.91,130.45,177.74,142.25,183.45,151Z" transform="translate(-39.15 -39.54)"/><path class="cls-8" d="M185.67,205.64l-66.61,2.85c-.93-1.14,7.27-43.62,14.08-59.89,8.74-20.86,13.75-22.78,16.73-24,3.82-1.62,14-1.46,15.68-.77,1.92.76,7.11,10.12,9.67,17.61C180.38,156.43,186.58,204.65,185.67,205.64Z" transform="translate(-39.15 -39.54)"/><path class="cls-9" d="M184.46,191.43l-63.34,2.9c.25-1.27.51-2.61.79-4l62-2.84Q184.22,189.54,184.46,191.43Zm.45,3.76-64.5,2.95c-.27,1.45-.5,2.78-.69,4l65.62-3C185.22,197.94,185.08,196.62,184.91,195.19Z" transform="translate(-39.15 -39.54)"/><path class="cls-15" d="M164.57,136.06c-3.77.35-9.25-6.11-11.09-11-.12-.33.81-3.53,1.76-7.48.57-2.39,1.15-5.07,1.5-7.56.07-.51,15,6,15,6a40.3,40.3,0,0,0-2.85,9.32,6,6,0,0,0,0,1v.17C168.94,128.53,168.22,135.72,164.57,136.06Z" transform="translate(-39.15 -39.54)"/><path class="cls-2" d="M157.69,110.25c.13,4.3,1.31,14.81,9.6,16.17a9.39,9.39,0,0,0,1.61.14,1,1,0,0,0,0-.17,6,6,0,0,1,0-1,40.27,40.27,0,0,1,2.85-9.33S161,111.34,157.69,110.25Z" transform="translate(-39.15 -39.54)"/><path class="cls-15" d="M160,90.39c-3.17,4.9-4.75,21.2-1.92,25.74,4.1,6.58,13,9.64,19.17,4.21,6-5.27,7.65-26.55,4.28-30.9C176.61,83,164.71,83.15,160,90.39Z" transform="translate(-39.15 -39.54)"/><path class="cls-2" d="M173.11,104.58s-.09,0-.1.08c-.12,1.1-.45,2.33-1.49,2.55,0,0,0,.06,0,.06C172.75,107.28,173.17,105.64,173.11,104.58Z" transform="translate(-39.15 -39.54)"/><path class="cls-2" d="M172.3,103.3c-1.74-.39-2.38,3.11-.78,3.47S173.76,103.62,172.3,103.3Z" transform="translate(-39.15 -39.54)"/><path class="cls-2" d="M178.85,105.66s.08.07.07.11c-.24,1.08-.32,2.35.59,2.89,0,0,0,.07,0,.06C178.32,108.33,178.45,106.64,178.85,105.66Z" transform="translate(-39.15 -39.54)"/><path class="cls-2" d="M180,104.7c1.77.19,1.26,3.71-.38,3.54S178.54,104.55,180,104.7Z" transform="translate(-39.15 -39.54)"/><path class="cls-2" d="M171.21,101.44a11.66,11.66,0,0,0,1.44-.23,2.37,2.37,0,0,0,1.43-.51.75.75,0,0,0,0-.92,1.87,1.87,0,0,0-1.82-.53,2.74,2.74,0,0,0-1.77.88A.81.81,0,0,0,171.21,101.44Z" transform="translate(-39.15 -39.54)"/><path class="cls-2" d="M181.7,103.19a12.23,12.23,0,0,1-1.32-.62,2.31,2.31,0,0,1-1.23-.89.76.76,0,0,1,.21-.9,1.88,1.88,0,0,1,1.89,0,2.77,2.77,0,0,1,1.46,1.34A.81.81,0,0,1,181.7,103.19Z" transform="translate(-39.15 -39.54)"/><path class="cls-2" d="M169.58,114.27c.21.3.41.7.79.81a3,3,0,0,0,1.22-.06,0,0,0,0,1,0,.06,1.48,1.48,0,0,1-1.49.33,1.19,1.19,0,0,1-.68-1.12C169.46,114.23,169.55,114.22,169.58,114.27Z" transform="translate(-39.15 -39.54)"/><path class="cls-2" d="M171.32,111.23a3.77,3.77,0,0,0,2.16,2.1,4.54,4.54,0,0,0,1.32.31l.26,0h.24a.27.27,0,0,0,.26-.2h0a.41.41,0,0,0,0-.11h0l0-.1c.18-.83.33-2.12.33-2.12.28.21,1.7,1.2,1.76.76a56,56,0,0,0,.63-11.44.1.1,0,0,0-.2,0c-.57,3.49-.53,7.06-1.05,10.58a6.49,6.49,0,0,0-1.65-.85c-.12,0-.25,2.49-.36,2.86a.1.1,0,0,1,0,0,5.19,5.19,0,0,1-3.6-1.89C171.37,111.07,171.27,111.13,171.32,111.23Z" transform="translate(-39.15 -39.54)"/><path class="cls-2" d="M174.38,113.18a4.48,4.48,0,0,1-2,.95,2,2,0,0,1-1.2-.2c-.81-.42-.65-1.22-.33-1.85a4.81,4.81,0,0,1,.62-.94A5.72,5.72,0,0,0,174.38,113.18Z" transform="translate(-39.15 -39.54)"/><path class="cls-14" d="M172.33,114.13a2,2,0,0,1-1.2-.2c-.81-.42-.65-1.22-.33-1.85A2.06,2.06,0,0,1,172.33,114.13Z" transform="translate(-39.15 -39.54)"/><path class="cls-16" d="M157.13,100.33c1.13-.27,3.78-3.18,4.93-4.35s2.56-7.83,2.92-9.82a10.68,10.68,0,0,0-4.71,3.78C158.9,91.91,157.75,96,157.13,100.33Z" transform="translate(-39.15 -39.54)"/><path class="cls-2" d="M176.82,93.93a5.27,5.27,0,0,1-5,1,5.35,5.35,0,0,1-3.53-3.83,0,0,0,1,0-.08,0,5.3,5.3,0,0,0,3.47,4.22A5.39,5.39,0,0,0,176.9,94C177,94,176.89,93.87,176.82,93.93Z" transform="translate(-39.15 -39.54)"/><path class="cls-2" d="M173.63,80.26a8.25,8.25,0,0,0-7.48,2.61,5.88,5.88,0,0,0-1.2,3.68s.11.06.11,0a6.46,6.46,0,0,1,4-5.25,8.34,8.34,0,0,1,7.41.35,5.3,5.3,0,0,1,2.41,2.71c0,.12.28.09.25,0C178.6,82.34,176.35,80.66,173.63,80.26Z" transform="translate(-39.15 -39.54)"/><path class="cls-2" d="M189.93,89.69a6.7,6.7,0,0,0-2.22-4c-1.65-1.45-3.75-1.63-5.85-1.77a0,0,0,0,0,0,.09,9.18,9.18,0,0,1,5.06,1.45,6.62,6.62,0,0,1,2.47,3.67,6.42,6.42,0,0,1-3.95,7.42,6.53,6.53,0,0,1-5.16-.34c-.06,0-.13.06-.06.09a6.57,6.57,0,0,0,9.72-6.58Z" transform="translate(-39.15 -39.54)"/><path class="cls-2" d="M158.85,92.81s-1.92-5.85,1-8.53c1.65-1.52,6.08-.52,6.08-.52a8.17,8.17,0,0,1,5.73-2.52c3.89-.21,8,2.75,8,2.75s3.9-1.42,6.9,1.06c4.18,3.46,2.37,10.42-2.69,11.88-3.55,1-7.5-2.65-7.5-2.65-.44,0-5.28,1.87-7.91-2.62,0,0-3.11,1.93-5.24-.17A4,4,0,0,1,158.85,92.81Z" transform="translate(-39.15 -39.54)"/><path class="cls-15" d="M159.74,104s-2.2-6-4.81-5.31-1.89,8.65.53,10.36a2.81,2.81,0,0,0,4-.5Z" transform="translate(-39.15 -39.54)"/><path class="cls-2" d="M155.2,100.93a0,0,0,0,0,0,.07c1.68,1.26,2.21,3.26,2.43,5.26a1.57,1.57,0,0,0-2.15-1c-.06,0,0,.11,0,.11a1.74,1.74,0,0,1,1.69,1.07,8.37,8.37,0,0,1,.49,1.73c0,.19.37.18.36,0v0C158.69,105.7,157.71,101.85,155.2,100.93Z" transform="translate(-39.15 -39.54)"/><path class="cls-15" d="M142.21,129.37c-21.35,13-44.19,40.9-42.05,49.26,2.39,9.31,26.53-6,26.8-7.48.2-1.09,12.85-18.67,22.37-35.37C158.12,120.36,147.49,126.16,142.21,129.37Z" transform="translate(-39.15 -39.54)"/><path class="cls-8" d="M139.94,156.74l-23.16-9.6S138,129.48,145.65,126c8.66-3.87,8.74,1.4,5.59,9.85S139.94,156.74,139.94,156.74Z" transform="translate(-39.15 -39.54)"/><path class="cls-2" d="M141,152.57c-.75-.45-8-3.5-9.52-4.13s-8-3.26-9.69-3.78c-.07,0-.12.08,0,.11,1.55.82,8,3.49,9.62,4.17s8.78,3.54,9.61,3.74C141,152.7,141,152.6,141,152.57Z" transform="translate(-39.15 -39.54)"/><path class="cls-2" d="M137,155.49c1,.33,2.06.67,3.07,1l-.26.08,2.38-4.06,2.41-4c1.61-2.69,3.22-5.37,4.74-8.12a40.51,40.51,0,0,1-1.89,4.33c-.69,1.42-1.44,2.8-2.22,4.16q-2.34,4.1-5.06,8L140,157l-.15-.07C138.88,156.48,137.91,156,137,155.49Z" transform="translate(-39.15 -39.54)"/><path class="cls-2" d="M146.25,146.3a10.36,10.36,0,0,1,1.26-1.73,11.38,11.38,0,0,1,1.54-1.48,6.25,6.25,0,0,1-1.17,1.81A7.32,7.32,0,0,1,146.25,146.3Z" transform="translate(-39.15 -39.54)"/><path class="cls-2" d="M145.55,124.34c-.89-.85,4.63-1.53,6.11-.64s8.23,13.79,7.59,31.23S123,189.77,121.39,187.32a5.28,5.28,0,0,1,.29-4.7c1.14-1.48,27.08-14.77,28.72-25.71C151.85,147.2,149.36,128,145.55,124.34Z" transform="translate(-39.15 -39.54)"/><polygon class="cls-1" points="176.59 161.94 179.3 129.11 186.27 100.24 166.04 102 151.35 97.48 135.54 100.65 117 94.47 119.36 126.17 113.78 157.28 127.71 162.22 144.83 158.76 158.65 164.79 176.59 161.94"/><polygon class="cls-12" points="158.65 164.79 166.04 102 151.35 97.48 144.83 158.76 158.65 164.79"/><polygon class="cls-12" points="127.71 162.22 135.54 100.65 117 94.47 119.36 126.17 113.78 157.28 127.71 162.22"/><path class="cls-15" d="M100.28,179.33c2.27,4.1,10.09,9.13,37.28,11.93,3.76.39,11.8-26.49,7.8-27.11-5-.78-22-1.74-23.47-1.63C111.06,163.41,98,175.24,100.28,179.33Z" transform="translate(-39.15 -39.54)"/><path class="cls-15" d="M175.89,169.72a4.23,4.23,0,0,1-2,4.4,6.25,6.25,0,0,1,1.79,3.86c.1,2.58-3.89,3.87-3.89,3.87a7.75,7.75,0,0,1,1.24,4.37c-.15,2.48-4,4.35-4,4.35a6.77,6.77,0,0,1-1.33,4.53c-2.74,3.37-9.33,2.56-13.52,2.08s-15.64-5.76-17.92-6.54L140.68,164s17.86-3.49,22.71-2.23C167.48,162.82,175.15,166.51,175.89,169.72Z" transform="translate(-39.15 -39.54)"/><path class="cls-2" d="M173.78,173.66c-4.07-2.17-8.57-3-13-4.12-.1,0-.14.13,0,.15,4.43,1.05,8.59,3,13,4.17A.11.11,0,0,0,173.78,173.66Z" transform="translate(-39.15 -39.54)"/><path class="cls-2" d="M171.77,181.48a12.21,12.21,0,0,0-3-.82c-1.09-.21-2.19-.41-3.29-.59-2.2-.36-4.42-.66-6.64-.91-.1,0-.14.14,0,.15,2.2.36,4.39.75,6.56,1.2l3.27.7a13.71,13.71,0,0,0,3.1.54A.14.14,0,0,0,171.77,181.48Z" transform="translate(-39.15 -39.54)"/><path class="cls-2" d="M169,190.56a8.42,8.42,0,0,0-2.77-.59l-3-.44c-2-.31-4-.61-6-1-.1,0-.14.13,0,.15,2,.39,4.05.81,6.09,1.19l3,.54a7.83,7.83,0,0,0,2.76.25A.07.07,0,0,0,169,190.56Z" transform="translate(-39.15 -39.54)"/><path class="cls-2" d="M142.08,163.72c-2.49-.1-5-.27-7.46-.41s-5-.33-7.44-.41a31.29,31.29,0,0,0-7.37.26,66.14,66.14,0,0,0-7.27,1.62,38.6,38.6,0,0,1,7.16-2.23,28.71,28.71,0,0,1,7.51-.45c2.5.14,5,.32,7.46.6S139.62,163.29,142.08,163.72Z" transform="translate(-39.15 -39.54)"/><path class="cls-15" d="M224,157.52c1.64,3.82,6,8.65,6.2,11.72a3.55,3.55,0,0,1-2.11,3.67s3,1.64,2.77,4.47c-.12,1.46-2.55,2.55-2.55,2.55a4.23,4.23,0,0,1,2,3.92c-.29,2-2.68,2.79-2.68,2.79s1.62,2.41.67,4.35c-1.92,3.93-19.21,3.28-21.65-3.19-1.13-3,3.08-2.63,3.08-2.63s-5.93-2-5.88-5.59,5.49-2.73,5.49-2.73-5.73-2-5.31-5.71,5.74-2.08,5.74-2.08-3.75-2.75-2.78-5.51c1.6-4.55,8.66,1.51,12.5.76l2.33-6.19Z" transform="translate(-39.15 -39.54)"/><path class="cls-15" d="M227.27,163.1c-1.24-3.75,3.52-8.15,2.85-11.9-.9-5.08-6.76-.35-8.3,6.92l-.2,5.86Z" transform="translate(-39.15 -39.54)"/><path class="cls-2" d="M227.26,186.82a0,0,0,0,1,0,.09,30.07,30.07,0,0,1-17.78-1.73c-.18-.08-.12-.4.09-.35A61.3,61.3,0,0,0,227.26,186.82Z" transform="translate(-39.15 -39.54)"/><path class="cls-2" d="M228.4,180c.07,0,.07.11,0,.12a28.08,28.08,0,0,1-19.28-3.1c-.2-.12-.26-.43,0-.31C213.18,178.74,222.81,180.24,228.4,180Z" transform="translate(-39.15 -39.54)"/><path class="cls-2" d="M209.42,168.67c5.75,3.17,11.93,4.18,18.44,4.3.08,0,.07.12,0,.14-3.2.81-7.33.3-10.52-.37a17.22,17.22,0,0,1-8-3.87C209.22,168.79,209.3,168.6,209.42,168.67Z" transform="translate(-39.15 -39.54)"/></g><g id="Suitcase"><rect class="cls-12" x="356.67" y="222.34" width="4.1" height="61.1"/><rect class="cls-12" x="315.97" y="222.34" width="4.1" height="61.1"/><rect class="cls-2" x="355.06" y="217.75" width="7.1" height="9.42"/><rect class="cls-2" x="314.47" y="217.75" width="7.1" height="9.42"/><polygon class="cls-2" points="314.47 215.35 314.47 222.46 324.65 222.46 326.64 223.88 350 223.88 351.99 222.46 362.16 222.46 362.16 215.35 351.99 215.35 350 216.77 326.64 216.77 324.65 215.35 314.47 215.35"/><rect class="cls-8" x="293.52" y="283.45" width="89.7" height="127.32"/><rect class="cls-9" x="293.52" y="283.45" width="89.7" height="127.32"/><rect class="cls-8" x="303.36" y="293.3" width="70.02" height="107.62"/><g class="cls-17"><path d="M404.86,337.41c-.19,8.2-.28,16.41-.35,24.61l-.11,24.61.11,24.61.13,12.31.23,12.31.23-12.31.13-12.31.11-24.61L405.23,362C405.14,353.82,405.05,345.62,404.86,337.41Z" transform="translate(-39.15 -39.54)"/><path d="M395.8,337.41c-.19,8.2-.28,16.41-.35,24.61l-.11,24.61.11,24.61.13,12.31.23,12.31.23-12.31.13-12.31.11-24.61L396.17,362C396.08,353.82,396,345.62,395.8,337.41Z" transform="translate(-39.15 -39.54)"/><path d="M386.74,337.41c-.19,8.2-.28,16.41-.35,24.61l-.11,24.61.11,24.61.13,12.31.23,12.31.23-12.31.13-12.31.11-24.61L387.11,362C387,353.82,386.93,345.62,386.74,337.41Z" transform="translate(-39.15 -39.54)"/><path d="M377.67,337.41c-.19,8.2-.28,16.41-.35,24.61l-.11,24.61.11,24.61.13,12.31.23,12.31.23-12.31.13-12.31.11-24.61L378,362C378,353.82,377.86,345.62,377.67,337.41Z" transform="translate(-39.15 -39.54)"/><path d="M368.61,337.41c-.19,8.2-.28,16.41-.35,24.61l-.11,24.61.11,24.61.13,12.31.23,12.31.23-12.31.13-12.31.11-24.61L369,362C368.89,353.82,368.8,345.62,368.61,337.41Z" transform="translate(-39.15 -39.54)"/><path d="M359.55,337.41c-.19,8.2-.28,16.41-.35,24.61l-.11,24.61.11,24.61.13,12.31.23,12.31.23-12.31.13-12.31.11-24.61L359.92,362C359.83,353.82,359.74,345.62,359.55,337.41Z" transform="translate(-39.15 -39.54)"/><path d="M350.49,337.41c-.19,8.2-.28,16.41-.35,24.61L350,386.63l.11,24.61.13,12.31.23,12.31.23-12.31.13-12.31.11-24.61L350.86,362C350.77,353.82,350.68,345.62,350.49,337.41Z" transform="translate(-39.15 -39.54)"/></g><polygon class="cls-2" points="383.22 400.96 366.33 400.96 359.57 410.76 383.22 410.76 383.22 400.96"/><polygon class="cls-2" points="293.52 400.96 310.41 400.96 317.17 410.76 293.52 410.76 293.52 400.96"/><polygon class="cls-2" points="383.22 312.91 387.94 311.99 387.94 301.43 383.22 300.5 383.22 312.91"/><polygon class="cls-2" points="383.22 393.71 387.94 392.78 387.94 382.22 383.22 381.3 383.22 393.71"/><path class="cls-2" d="M324.88,386.64c0,19.35,4.71,31.23,4.71,31.23h3.08V400h-3.9V373.33h3.9V355.41h-3.08S324.88,367.29,324.88,386.64Z" transform="translate(-39.15 -39.54)"/><path class="cls-12" d="M327.69,411.46a54.36,54.36,0,0,0,1.9,6.42h3.08v-6.42Z" transform="translate(-39.15 -39.54)"/><path class="cls-12" d="M327.69,361.83h5v-6.42h-3.08A54.36,54.36,0,0,0,327.69,361.83Z" transform="translate(-39.15 -39.54)"/><path class="cls-2" d="M377.06,316.12c-19.35,0-23.84,4.71-23.84,4.71V323h11.46v-3h24.78v3h12.38v-2.15S396.41,316.12,377.06,316.12Z" transform="translate(-39.15 -39.54)"/><polygon class="cls-2" points="372.59 418.63 376.76 418.63 379.54 410.76 370.51 410.76 373.09 414.7 372.59 418.63"/><path class="cls-7" d="M407.86,460.55a5.76,5.76,0,1,0,5.76-5.76A5.76,5.76,0,0,0,407.86,460.55Z" transform="translate(-39.15 -39.54)"/><path class="cls-12" d="M410.47,460.55a3.15,3.15,0,1,0,3.15-3.15A3.15,3.15,0,0,0,410.47,460.55Z" transform="translate(-39.15 -39.54)"/><path class="cls-2" d="M413.55,458.64c0,.45.05.82.12.82s.12-.37.12-.82-.05-.82-.12-.82S413.55,458.19,413.55,458.64Z" transform="translate(-39.15 -39.54)"/><path class="cls-2" d="M414.92,459.15c-.32.32-.54.62-.49.67s.35-.17.67-.49.54-.62.49-.67S415.24,458.83,414.92,459.15Z" transform="translate(-39.15 -39.54)"/><path class="cls-2" d="M415.52,460.48c-.45,0-.82,0-.82.12s.37.12.82.12.82-.05.82-.12S416,460.48,415.52,460.48Z" transform="translate(-39.15 -39.54)"/><path class="cls-2" d="M415,461.85c-.32-.32-.62-.54-.67-.49s.17.35.49.67.62.54.67.49S415.33,462.17,415,461.85Z" transform="translate(-39.15 -39.54)"/><ellipse class="cls-2" cx="374.41" cy="422.91" rx="0.12" ry="0.82"/><path class="cls-2" d="M412.31,461.94c.32-.32.54-.62.49-.67s-.35.17-.67.49-.54.62-.49.67S412,462.26,412.31,461.94Z" transform="translate(-39.15 -39.54)"/><ellipse class="cls-2" cx="372.56" cy="420.95" rx="0.82" ry="0.12"/><path class="cls-2" d="M412.22,459.24c.32.32.62.54.67.49s-.17-.35-.49-.67-.62-.54-.67-.49S411.9,458.92,412.22,459.24Z" transform="translate(-39.15 -39.54)"/><polygon class="cls-2" points="304.16 418.63 299.98 418.63 297.21 410.76 306.23 410.76 303.65 414.7 304.16 418.63"/><path class="cls-7" d="M347.18,460.55a5.76,5.76,0,1,1-5.76-5.76A5.76,5.76,0,0,1,347.18,460.55Z" transform="translate(-39.15 -39.54)"/><path class="cls-12" d="M344.57,460.55a3.15,3.15,0,1,1-3.15-3.15A3.15,3.15,0,0,1,344.57,460.55Z" transform="translate(-39.15 -39.54)"/><ellipse class="cls-2" cx="302.22" cy="419.1" rx="0.12" ry="0.82"/><path class="cls-2" d="M340.12,459.15c.32.32.54.62.49.67s-.35-.17-.67-.49-.54-.62-.49-.67S339.8,458.83,340.12,459.15Z" transform="translate(-39.15 -39.54)"/><path class="cls-2" d="M339.52,460.48c.45,0,.82,0,.82.12s-.37.12-.82.12-.82-.05-.82-.12S339.06,460.48,339.52,460.48Z" transform="translate(-39.15 -39.54)"/><path class="cls-2" d="M340,461.85c.32-.32.62-.54.67-.49s-.17.35-.49.67-.62.54-.67.49S339.71,462.17,340,461.85Z" transform="translate(-39.15 -39.54)"/><ellipse class="cls-2" cx="302.33" cy="422.91" rx="0.12" ry="0.82"/><path class="cls-2" d="M342.73,461.94c-.32-.32-.54-.62-.49-.67s.35.17.67.49.54.62.49.67S343.05,462.26,342.73,461.94Z" transform="translate(-39.15 -39.54)"/><ellipse class="cls-2" cx="304.18" cy="420.95" rx="0.82" ry="0.12"/><path class="cls-2" d="M342.82,459.24c-.32.32-.62.54-.67.49s.17-.35.49-.67.62-.54.67-.49S343.14,458.92,342.82,459.24Z" transform="translate(-39.15 -39.54)"/></g></svg>