<?xml version="1.0" encoding="utf-8"?>
<!-- Generator: Adobe Illustrator 24.2.1, SVG Export Plug-In . SVG Version: 6.00 Build 0)  -->
<svg version="1.1" id="Layer_1" xmlns="http://www.w3.org/2000/svg" xmlns:xlink="http://www.w3.org/1999/xlink" x="0px" y="0px"
	 viewBox="0 0 3000 2000" style="enable-background:new 0 0 3000 2000;" xml:space="preserve">
<style type="text/css">
	.st0{fill:#FFFFFF;}
	.st1{clip-path:url(#SVGID_2_);}
	.st2{fill:#699FF0;}
	.st3{fill:#466AA5;}
	.st4{fill:#F1A34F;}
	.st5{fill:#FFB27D;}
	.st6{fill:#163560;}
	.st7{fill:#9C5F33;}
	.st8{fill:#A8D29F;}
	.st9{fill:#80BDCC;}
	.st10{fill:#5F9AA8;}
	.st11{fill:#AB7041;}
	.st12{fill:#233862;}
	.st13{fill:#82B378;}
	.st14{fill:#2B478B;}
	.st15{fill:#699DEE;}
	.st16{fill:#AD7041;}
	.st17{fill:#415DA5;}
	.st18{fill:#355493;}
	.st19{fill:#B84C42;}
	.st20{fill:#A53D38;}
	.st21{fill:#B2CBFD;}
	.st22{fill:#E8945B;}
	.st23{fill:#3B76CA;}
	.st24{fill:#E9F2FF;}
	.st25{opacity:0.9;fill:#AFCDFB;}
	.st26{fill:#E58638;}
	.st27{fill:#EE9849;}
	.st28{fill:#D9935C;}
	.st29{fill:#CB8757;}
	.st30{fill:#2C3A64;}
	.st31{fill:#DA935B;}
	.st32{fill:#66A357;}
	.st33{fill:#B64C41;}
	.st34{fill:#D86713;}
	.st35{opacity:0.4;}
	.st36{fill:#283250;}
</style>
<g>
	<rect transform="matrix(-1 -1.224647e-16 1.224647e-16 -1 3000 2000)" class="st0" width="3000" height="2000"/>
	<g>
		<defs>
			<path id="SVGID_1_" d="M2715.79,1257.36c-180.47-181.64-570.34-83.89-589.91-565.13c-19.57-481.24-857.22-497.93-1112.27-29.47
				C758.56,1131.21-52.89,934.97,335.13,1701.92l2333.29-5.9C2668.42,1696.02,2896.26,1438.99,2715.79,1257.36z"/>
		</defs>
		<use xlink:href="#SVGID_1_"  style="overflow:visible;fill:#EBF3FA;"/>
		<clipPath id="SVGID_2_">
			<use xlink:href="#SVGID_1_"  style="overflow:visible;"/>
		</clipPath>
		<g class="st1">
			<g>
				<rect x="1264.18" y="245.38" class="st2" width="10.26" height="334.02"/>
				<rect x="1831.02" y="245.38" class="st2" width="10.26" height="334.02"/>
			</g>
			<rect x="1208.09" y="569.13" class="st3" width="689.28" height="393.2"/>
			<g>
				<rect x="1250.26" y="637.49" class="st0" width="37.89" height="62.63"/>
				<rect x="1299.74" y="637.49" class="st0" width="37.89" height="62.63"/>
				<rect x="1347.37" y="692.22" class="st0" width="502.11" height="7.89"/>
				<rect x="1347.37" y="674.07" class="st0" width="502.11" height="7.89"/>
				<rect x="1347.37" y="654.86" class="st0" width="442.5" height="7.89"/>
				<rect x="1347.37" y="637.49" class="st0" width="400.13" height="7.89"/>
			</g>
			<g>
				<rect x="1250.26" y="740.12" class="st0" width="37.89" height="62.63"/>
				<rect x="1299.74" y="740.12" class="st0" width="37.89" height="62.63"/>
				<rect x="1347.37" y="794.86" class="st0" width="502.11" height="7.89"/>
				<rect x="1347.37" y="776.7" class="st0" width="502.11" height="7.89"/>
				<rect x="1347.37" y="757.49" class="st0" width="442.5" height="7.89"/>
				<rect x="1347.37" y="740.12" class="st0" width="400.13" height="7.89"/>
			</g>
			<g>
				<rect x="1250.26" y="842.75" class="st0" width="37.89" height="62.63"/>
				<rect x="1299.74" y="842.75" class="st0" width="37.89" height="62.63"/>
				<rect x="1347.37" y="897.49" class="st0" width="502.11" height="7.89"/>
				<rect x="1347.37" y="879.33" class="st0" width="502.11" height="7.89"/>
				<rect x="1347.37" y="860.12" class="st0" width="442.5" height="7.89"/>
				<rect x="1347.37" y="842.75" class="st0" width="400.13" height="7.89"/>
			</g>
			<rect x="1250.26" y="496.43" class="st4" width="340.26" height="72.69"/>
			<rect x="1522.63" y="503.54" class="st0" width="56.84" height="56.84"/>
			<path class="st4" d="M1540.64,516.11L1540.64,516.11c0,0.79,0.31,1.54,0.87,2.1l13.51,13.51l-13.51,13.51
				c-0.56,0.56-0.87,1.31-0.87,2.1v0.48c0,2.64,3.2,3.97,5.06,2.1l14.24-14.24c2.05-2.05,2.05-5.37,0-7.41l-14.24-14.24
				C1543.83,512.15,1540.64,513.47,1540.64,516.11z"/>
		</g>
	</g>
	<g>
		<g>
			<path class="st5" d="M2548.99,1688.28c0,0-27.41-31.33-35.17-45.6l-21.33-39.39l-27.92,6.9l35.43,50.21l37.01,31.32
				L2548.99,1688.28z"/>
			<path class="st6" d="M2372.46,918.72c-6.44-3.66-14.16-4.06-19.55-3.74c1.39-1.43,4.12-1.96,4.12-1.96
				c-3.35-0.5-10.82,2.82-10.82,2.82c-46.56-17.94-53.88,50.61-52.9,66.54c0.97,15.93-15.65,21.13-39.87,33.67
				c-46.22,23.94-50.28,56-50.28,56c0.36,0.21,0.74,0.45,1.14,0.73c2.29-3.88,7.01-11.18,10.99-12.28c-0.15,0.35-4.7,10.04-6.4,15.6
				c13.63,10.37,39.14,33.35,56.92,49.65c-0.08-3.18,0.05-7.71,1.21-10.09l2.2,13.23c9.51,8.75,16.07,14.9,16.07,14.9
				c-1.18-12.87,58.21-80.79,89.19-101.13c7.54-11.1,10.22-30.72,10.42-32.26c-1.3,15.55-3.96,24.28-6.34,29.19
				C2404.8,1015.44,2389.53,928.42,2372.46,918.72z"/>
			<path class="st7" d="M2372.65,1043.67c0.16,0.07-14.96,7.92-26.33,4.81c-10.69-2.92-17.68-16.78-17.53-16.81
				c4.53-0.9,5.83-7.12,5.74-33.87l2.05,0.4l34.42,6.82c0,0-0.78,10.83-0.81,21.04C2370.17,1034.63,2370.69,1042.76,2372.65,1043.67
				z"/>
			<path class="st8" d="M2333.72,929.95c0,0,16.98-18.08,38.3-0.92C2372.02,929.02,2359.61,926.88,2333.72,929.95z"/>
			<path class="st6" d="M2333.02,994.45c0,0-10.09-15.95-12.52-29.59c-1.73-9.74,3.23-45.83,39.5-40.63c0,0,10.53,1.04,20.44,7.73
				c7.87,5.32,19.24,16.8,6.53,48.3l-3.3,10.64L2333.02,994.45z"/>
			<path class="st9" d="M2508.2,1628.92l-18.25,0.56l-19.75,0.61c0,0-45.62-50.8-71.21-132.22c-0.6-1.89-1.23-3.81-1.89-5.75
				c-14.01-40.84-43.04-92.1-58.34-138.5c-2.44-7.39-4.62-14.35-6.58-20.93c-0.63-2.11-1.24-4.18-1.82-6.22
				c-11.28-39.18-14.54-64.9-17.55-92.39l110.49,0.88C2423.29,1234.96,2441.12,1422.63,2508.2,1628.92z"/>
			<path class="st4" d="M2415.53,1246.61c0,0-47.31,24.03-103.53,6.34c-0.66-0.21,3.71-217.32,19.66-223.3
				c3.67,4.57,14.53,9.14,24.25,8.92c11.2-0.25,14.83-5.04,14.25-10.28c11.93,6.64,21.46,12.91,21.46,12.91
				C2401.77,1058.82,2415.53,1246.61,2415.53,1246.61z"/>
			<path class="st10" d="M2312.8,1177.34c-4.83,6.84-14.09,48.38-37.13,53.6c11.87-29.61,20.88-42.59,22.29-51.7
				c2.61-17,2.67-34.58,1.37-51.17c7.71-13.52,13.47-22.78,13.47-22.78c0.61-2.19,12.26-38.21,15.99-6.01
				C2332.51,1131.49,2318.19,1169.69,2312.8,1177.34z"/>
			<path class="st11" d="M2377.43,1014.68c0,0-45.58,0.75-45.61-27.64c-0.03-28.39-5.93-47.41,23.16-49.09
				c29.1-1.68,34.76,9.15,37.08,18.62C2394.38,966.04,2389.29,1013.76,2377.43,1014.68z"/>
			<path class="st6" d="M2375.74,937.26c0,0-12.48,33.31-31.63,38.23c-19.15,4.92-27.46-0.21-27.46-0.21s14.69-11.67,17.74-32.04
				C2334.39,943.24,2366.33,921.4,2375.74,937.26z"/>
			<path class="st6" d="M2372.65,939.96c0,0,9.32,7.44,11.59,14.67c2.27,7.23,3.29,22.11,7.63,21.61c0,0,9.4-22.64-1.17-35.45
				C2379.51,927.21,2372.65,939.96,2372.65,939.96z"/>
			<path class="st11" d="M2560.83,1061.8c0,0,6.43-23.16,31.88-19.88c2.92,0.92,11.46,4.32,6,13.46
				c-4.02,6.74-5.76,3.26-12.09,12.31c-6.33,9.05-13.19,11.1-21.04,10.01L2560.83,1061.8z"/>
			<path class="st5" d="M2343.28,1683.59c-1.55-8.53-4.5-23.28-4.5-23.28l0.68-52.34h-31.79l11.9,50.1
				c0.24,2.33,0.89,11.35-2.44,20.92c0,0-3.05,13.91,10.65,14.17C2341.47,1693.41,2344.83,1692.12,2343.28,1683.59z"/>
			<path class="st12" d="M2344.58,1699.96h-28.49c-1.42-7.45,1.04-20.95,1.04-20.95c15.5,15.03,25.22-0.38,25.22-0.38
				C2344.66,1684.51,2344.61,1697.76,2344.58,1699.96z"/>
			<path class="st12" d="M2562.3,1700.06h-35.12c-3.05-2.83-5.97-8.42-9.52-15.71c-2.07-4.22-6.69-6.55-11.44-7.83v23.54h-7.28
				l-6.68-25.04c-4.48-8.42-1.05-16,2.1-22.66c3.66-0.01,14.2,2.5,32.86,24.04c6.13,7.07,12.9,9.6,19.63,9.38
				c0.1,0.06,0.19,0.11,0.28,0.15C2557.64,1690.79,2561.15,1696.74,2562.3,1700.06z"/>
			<path class="st8" d="M2560.83,1061.8c0,0-29.92,16.73-40.6,21.55c-6.09,2.75-20.11,9.31-29.99,13.95
				c-6.28,2.95-13.76,1.34-18.27-3.94c-16.22-18.95-58.44-60.04-101.8-65.08c0,0,26.37,65.14,27.15,78.33
				c0.78,13.18,3.1,215.59,3.1,215.59s-1.55,9.31,16.29,5.43c17.84-3.88,22.49-7.76,22.49-7.76s-17.06-124.86-12.41-168.28
				c0.92-8.56,0.08-18.18-1.84-28.12c26.42,16.07,57.68,23.21,57.68,23.21s23.37-10.2,55.32-33.61
				c10.03-7.35,27.65-35.38,27.65-35.38L2560.83,1061.8z"/>
			<path class="st10" d="M2489.96,1629.47l-19.75,0.61c0,0-45.62-50.8-71.21-132.22c-0.6-1.89-1.23-3.81-1.89-5.75
				c-14.01-40.84-43.04-92.1-58.34-138.5c-2.44-7.39-4.62-14.35-6.58-20.93c-0.63-2.11-1.24-4.18-1.82-6.22l16.27-12.35
				c0,0,48.85,79.1,63.97,153.54C2423.73,1532.32,2476.34,1610.13,2489.96,1629.47z"/>
			<path class="st9" d="M2348.32,1474.59c0.28,36.2-1.55,119.43-6.27,153.88h-17.5c-9.67,0-14.49-0.14-14.49-0.14
				c-11.83-59.91-20.24-109.48-26.37-152.19c-5.03-35.05-9.49-65.1-12.93-90.97c-3.46-26.03-5.86-47.83-6.72-66.25
				c-0.13-2.9-0.23-5.72-0.29-8.46c-0.05-2.75-0.07-5.43-0.05-8.03l95.46-9.31C2357.97,1356.55,2348.16,1453.55,2348.32,1474.59z"/>
			<path class="st10" d="M2324.56,1628.47c-9.67,0-14.49-0.14-14.49-0.14c-11.83-59.91-20.24-109.48-26.37-152.19
				c-5.03-35.05-9.49-65.1-12.93-90.97c-3.46-26.03-5.86-47.83-6.72-66.25l35.03,20.61c0,0-22.36,7.89-13.83,67.6
				C2293.78,1466.84,2312.68,1620.02,2324.56,1628.47z"/>
			<path class="st8" d="M2329.06,1318.33c0,0-6.72,24.29-29.98,21.19c-23.27-3.09-56.35-17.06-56.35-17.06s9.95-31.41,22.3-72.69
				c0.13-0.43,0.26-0.88,0.39-1.32c14.59-48.73,32.42-110.77,41.28-151.14c0.19-0.86,0.37-1.71,0.55-2.55
				c2.45-11.38,4.13-20.89,4.75-27.7l19.66-37.42c0,0,28.42,64.56,29.98,80.85C2363.19,1126.78,2329.06,1318.33,2329.06,1318.33z"/>
			<path class="st11" d="M2305.84,1108.07l25.83-78.42c-0.07,0.03-32.52,9.52-48.68,17.68c0,0-10.09,13.01-16.34,43.04
				c0,0-6.6,72.08,8.14,98.45c0,0,46.53,9.31,120.98-16.29v-17.06c0,0-81.43,4.27-98.1,6.2L2305.84,1108.07z"/>
			<path class="st13" d="M2325.8,1144.61c-1.03,26.01-7.08,76.18-60.37,103.84c14.59-48.73,32.42-110.77,41.28-151.14
				C2316.37,1112.15,2326.32,1130.89,2325.8,1144.61z"/>
			<path class="st8" d="M2331.66,1029.65c0,0-47.57,3.3-58.95,28.63c-11.37,25.33-14.99,109.6-0.52,134.42
				c0,0,19.93,5.68,55.18-0.92c0.43-0.08,0.87-0.16,1.3-0.25c0,0,11.24-27.53,1.16-32.96c0,0-29.73,1.55-26.63-8.27
				C2306.32,1140.48,2331.66,1029.65,2331.66,1029.65z"/>
			<path class="st11" d="M2387.41,1160.01c0,0,6.49-7.86,7.87-15.89c1.38-8.03,5.68-13.98,16.87-15.45
				c11.2-1.47,16.01-1.63,15.98,1.53c-0.03,3.16-9.15,25.19-25.21,38.35C2386.85,1181.71,2387.41,1160.01,2387.41,1160.01z"/>
		</g>
		<path class="st14" d="M2336.41,1347.03h-63.09c-16.9,0-30.59-13.7-30.59-30.59v-26.4c0-16.9,13.7-30.59,30.59-30.59h63.09
			c16.9,0,30.59,13.7,30.59,30.59v26.4C2367,1333.34,2353.3,1347.03,2336.41,1347.03z"/>
		<g>
			<path class="st15" d="M2219.44,1297.19v19.25c0,16.9,13.7,30.59,30.59,30.59h63.09c16.9,0,30.59-13.7,30.59-30.59v-17.54
				l-62.14,11.42L2219.44,1297.19z"/>
			<path class="st15" d="M2343.71,1290.04c0-16.9-13.7-30.59-30.59-30.59h-63.09c-16.9,0-30.59,13.7-30.59,30.59l62.14,13.2
				L2343.71,1290.04z"/>
			<polygon class="st14" points="2281.57,1303.24 2219.44,1290.04 2219.44,1297.19 2281.57,1310.32 2343.71,1298.9 2343.71,1290.04 
							"/>
		</g>
		<path class="st14" d="M2320.95,1158.56c-1.97-4.26-14.33-2.55-14.33-2.55c28.7,6.87,46.83,134.03,46.83,134.03h5.73
			C2348.59,1205.95,2322.92,1162.82,2320.95,1158.56z"/>
		<polygon class="st14" points="2235.07,1263.36 2265.17,1169.03 2267.28,1179.6 2241.05,1260.79 		"/>
	</g>
	<g>
		<path class="st5" d="M1077.41,1169.04c0,0-11.57-3.85-17.16-2.69c-5.59,1.16-22.93,9.25-23.31,10.98c-0.39,1.73,0,2.98,0,2.98
			h40.47c0,0,9.05-1.76,10.59-7.09C1089.53,1167.89,1077.41,1169.04,1077.41,1169.04z"/>
		<path class="st16" d="M1228.39,1678.94c-0.31,3.31-2.15,5.45-5.06,6.72c-0.01,0.01-0.03,0.01-0.04,0.01
			c-5.39,2.36-14.43,1.83-24.19,0.51c-1.25-0.17-2.38-0.3-3.38-0.39c-0.26-0.02-0.53-0.05-0.79-0.06c-0.21-0.02-0.41-0.03-0.61-0.05
			c-9.72-0.64-8.96,2.36-27.55,2.26c-21.18-0.11-28.35-7.25-29.32-10.29c-0.82-2.58,8.46-4.58,18.83-6.89c0.5-0.11,1-0.23,1.51-0.34
			c1.38-0.31,2.77-0.63,4.15-0.94c12.36-2.9,24.6-6.56,28.65-18.44c4.29-12.6,3.28-49.97,3.28-49.97h37.52
			c0,0-9.85,41.29-8.82,53.19c0.56,6.35,3.6,8.16,4.77,13.67c0.09,0.39,0.16,0.77,0.23,1.16
			C1228.14,1672.32,1228.7,1675.62,1228.39,1678.94z"/>
		<g>
			<path class="st17" d="M1272.04,1274.94c-3.17,17.77-7.68,36.14-11.61,55.25c-6.3,30.72-11.06,63.35-6.19,98.49
				c0.62,4.52,0.96,9.51,1.04,14.88c0.95,62.1-26.8,174.65-26.8,174.65s-7.54,3.25-20.17,2.63c-6.5-0.32-16.48-4.52-16.48-4.52
				s-2.63-69.78-2.78-163.62c-0.11-68.02-13.47-157.59-16.17-210.22c-1.63-31.85,1.91-74.28,1.91-74.28s55.31-44.48,75.18-21.72
				C1269.6,1168.95,1283.89,1208.44,1272.04,1274.94z"/>
		</g>
		<path class="st18" d="M1254.25,1428.67c0.62,4.52,0.96,9.51,1.04,14.88c-41.42-60.02-50.59-190.9-50.59-190.9l45.5,22.08
			c0,0,4.99,24.54,10.24,55.45C1254.13,1360.9,1249.38,1393.53,1254.25,1428.67z"/>
		<path class="st16" d="M1348.06,1678.94c-0.31,3.31-2.15,5.45-5.06,6.72c-0.01,0.01-0.03,0.01-0.04,0.01
			c-5.39,2.36-14.43,1.83-24.19,0.51c-1.25-0.17-2.38-0.3-3.38-0.39c-0.26-0.02-0.53-0.05-0.79-0.06c-0.2-0.02-0.41-0.03-0.61-0.05
			c-9.72-0.64-8.96,2.36-27.55,2.26c-21.18-0.11-28.35-7.25-29.32-10.29c-0.82-2.58,8.46-4.58,18.83-6.89c0.5-0.11,1-0.23,1.51-0.34
			c1.38-0.31,2.77-0.63,4.15-0.94c12.36-2.9,24.6-6.56,28.65-18.44c4.29-12.6-1.84-49.4-1.84-49.4l34.76-2.9
			c0,0-2.16,41.93-1.13,53.83c0.56,6.35,3.79,9.85,4.96,15.36c0.09,0.39,0.16,0.77,0.23,1.16
			C1347.81,1672.32,1348.37,1675.62,1348.06,1678.94z"/>
		<path class="st17" d="M1343.16,1621.37c0,0-8.93,4.23-15.37,5.51c-6.43,1.29-19.8-1.23-19.8-1.23
			c-2.41-27.02-8.01-69.28-18.89-116.96c-12.39-54.29-30.83-118.44-56.54-179.19c-5.49-12.97-28.14-74.39-31.98-89.88
			c-11.62-46.83,0.05-41.78,0.05-41.78l101.56-11.92c0,0,12.51,6.43,18.28,72.56c1.72,19.8,1.94,105.31,4.53,121.52
			c2.46,15.35,5.34,28.11,8.72,36.41C1352.6,1462.71,1343.16,1621.37,1343.16,1621.37z"/>
		<path class="st19" d="M1348.06,1678.94c-0.31,3.31-2.15,5.45-5.06,6.72c-0.01,0.01-0.03,0.01-0.04,0.01
			c-5.7,2.03-14.59,1.6-24.17,0.45c-1.25-0.15-2.38-0.26-3.41-0.33c-0.26-0.02-0.53-0.05-0.79-0.06c-0.2-0.02-0.41-0.03-0.61-0.05
			c-9.72-0.64-8.96,2.36-27.55,2.26c-21.18-0.11-28.35-7.25-29.32-10.29c-0.82-2.58,8.46-4.58,18.83-6.89
			c2.73,1.35,15.78,7.25,32,5.68c14.26-1.37,28.83-7.08,39.06-8.51c0.09,0.39,0.16,0.77,0.23,1.16
			C1347.81,1672.32,1348.37,1675.62,1348.06,1678.94z"/>
		<path class="st19" d="M1228.39,1678.94c-0.31,3.31-2.15,5.45-5.06,6.72c-0.01,0.01-0.03,0.01-0.04,0.01
			c-5.7,2.03-14.59,1.6-24.17,0.45c-1.25-0.15-2.38-0.26-3.41-0.33c-0.26-0.02-0.53-0.05-0.79-0.06c-0.21-0.02-0.41-0.03-0.61-0.05
			c-9.72-0.64-8.96,2.36-27.55,2.26c-21.18-0.11-28.35-7.25-29.32-10.29c-0.82-2.58,8.46-4.58,18.83-6.89
			c2.73,1.35,15.78,7.25,32,5.68c14.26-1.37,28.83-7.08,39.06-8.51c0.09,0.39,0.16,0.77,0.23,1.16
			C1228.14,1672.32,1228.7,1675.62,1228.39,1678.94z"/>
		<path class="st20" d="M1187.76,881.81c-3.43-28.02,5.32-72.85,61.24-65.68c55.92,7.16,73.54,62.12,62.26,86.55
			c-11.28,24.43,16.23,30.33,24.87,56.6c7.42,22.57,10.01,50.6,22.01,63.18c38.71,40.55-37.16,102.92-82.9,89.77
			c-83.31-23.95-94.05-27.53-91.09-92.99c1.52-33.54,27.61-46.54,11.04-56.24C1155.17,939.56,1195.52,945.2,1187.76,881.81z"/>
		<path class="st5" d="M1269.93,955.17l-15.37,39.8l-33.28,1.63l-16.57-24.83c18.8-14.26,18.01-41.54,17.08-51.07
			c-0.21-2.15-0.42-3.39-0.42-3.39l41.6-12.67c0.5,11,1.12,19.6,1.78,26.33C1267.07,954.61,1269.93,955.17,1269.93,955.17z"/>
		<path class="st5" d="M1204.57,953.74c2.14,0,38.45-7.39,99.78,8.3c0,0-33.59,153.88-22.18,182.88
			c11.41,29,15.75,54.74,15.75,54.74l-123.77,1.54c0,0,1.73-99.55-3.97-134.78C1164.46,1031.18,1204.57,953.74,1204.57,953.74z"/>
		<path class="st21" d="M1295.82,1125.38c1.81,20.37,20.84,66.91,16.72,76.83c-4.31,10.41-10.31,15.69-23.42,18.7
			c-9.04,2.08-21.46,3.09-39.04,3.96c-37.29,1.85-77.25-2.83-82.69-20.56c-2.61-8.51-1.6-41.43-0.22-56.63
			c2.86-31.45-3.13-76.58-4.01-105.78c-0.72-24.36,13.97-79.79,13.97-79.79s6.63-4.18,27.43-8.37c0,0,2.19,28.79,17.21,31.27
			c25.98,4.29,46.91-19.51,53.03-29.09c0,0,29.84,7.53,38.59,17.51c8.29,9.45-3.05,79.48-5.57,86.19
			c-2.18,5.76-4.24,11.39-6.03,17.04C1297.06,1091.58,1294.16,1106.73,1295.82,1125.38z"/>
		<path class="st5" d="M1402.06,1169.14c0,0,11.57-3.81,17.15-2.67c5.59,1.15,22.93,9.17,23.31,10.88c0.38,1.72,0,2.96,0,2.96
			h-40.47c0,0-9.05-1.74-10.59-7.03C1389.93,1168,1402.06,1169.14,1402.06,1169.14z"/>
		<path class="st22" d="M1264.74,933.61c-15.18-10.17-34.26-10.68-42.96-10.27c-0.21-2.15-0.42-3.39-0.42-3.39l41.6-12.67
			C1263.47,918.29,1264.08,926.88,1264.74,933.61z"/>
		<path class="st5" d="M1210.5,920.14c0,0,49.81,10,55.56-21.11c5.75-31.11,16.05-50.78-15.5-58.48
			c-31.56-7.7-39.95,3.03-44.39,12.94C1201.71,863.41,1197.69,916.74,1210.5,920.14z"/>
		<path class="st20" d="M1275.7,842.62c-8.43-9.48-20.59-11.33-29.45-11.17c5.34-6.48-16.15-20.67-40.72,3.54
			c-10.59,10.43-8.99,30.94-3.32,42.83c0,0,8.71-25.5,24.56-31.06c3.53-1.24,6.88-3.3,9.95-5.76c1.93,4.85,5.81,11.71,13.62,20.24
			c16.38,17.91,13.19,54.12,13.19,54.12S1290.42,859.18,1275.7,842.62z"/>
		<path class="st0" d="M1226.01,904.83c0,0-1.33,3.69-10.71,2.02c0,0-7.87-1.41-7.15-5.55
			C1208.16,901.3,1216.19,899.22,1226.01,904.83z"/>
		<path class="st15" d="M1362.66,1094.64c-18.84-72.71-29.18-114.22-44.61-126.79c-13.65-11.11-43.09-12.13-43.09-12.13
			c-0.46,8.74-0.04,17.52,1.03,26.21l-36.22,69.01c0,0-18.56,36.71-25.15,76.87c-4.98-39.88-9.92-76.87-9.92-76.87
			s-4.67-23.59-6.14-45.19c4.36-16.84,3.91-34.42,5.96-52.02l-2.28,0.13c-7.15,0.5-29.45,2.77-40.81,12.1
			c-15.44,12.67-18.9,68.33-44.61,127.91c0,0-31.16,52.39-41.08,73.17c0,0,1.86,2.84,5.57,4.98c3.6,2.08,8.15,2.9,8.15,2.9
			s56.21-55.35,59.9-64.1c1.22-2.88,8.02-12.97,16.46-27.82v0c0,0,2.24,79.08-2.67,113.21c-1.04,7.23,2.42,14.36,8.78,17.95
			c34.71,19.61,138.71,73.02,158.06,21.14c2.17-5.82-35.83-104.61-30.63-126c1.66-6.84,3.86-22.44,6.08-40.49
			c11.91,22.84,23.1,38.87,24.7,42.62c3.69,8.67,59.9,63.54,59.9,63.54s4.55-0.82,8.15-2.87c3.72-2.12,5.57-4.94,5.57-4.94
			C1393.82,1146.57,1362.66,1094.64,1362.66,1094.64z"/>
		<path class="st23" d="M1273,955.52l-33.23,95.43l33.22-31.41l-2.51-9.77c0,0,7.64,0.68,10.74-1.32c3.1-2,10.31-50.79,10.31-50.79
			s-6.76-1.13-9-1.39C1280.13,955.99,1273,955.52,1273,955.52z"/>
		<path class="st23" d="M1204.51,953.74c0,0-7,75.44,0.18,97.21c0,0-20.56-32.56-16.71-39.3l7.45-4.91c0,0-14.39-1.87-11.69-10.13
			s14.26-41.79,14.26-41.79L1204.51,953.74z"/>
	</g>
	<g>
		<polygon class="st2" points="1756.19,1700.28 608.58,1700.28 608.58,1440.07 1756.19,1437.47 		"/>
		<rect x="608.58" y="1229.36" class="st2" width="1147.61" height="68.05"/>
	</g>
	<path class="st3" d="M590.45,1229.36h1182.37c12.1,0,21.91-9.81,21.91-21.91v-5.23c0-12.1-9.81-21.91-21.91-21.91H590.45
		c-12.1,0-21.91,9.81-21.91,21.91v5.23C568.54,1219.55,578.35,1229.36,590.45,1229.36z"/>
	<g>
		<path class="st14" d="M1287.29,1059.94l-22.85-1.41c-1.54-0.09-2.71-1.42-2.61-2.96l0.63-10.22c0.09-1.54,1.42-2.71,2.96-2.61
			l22.85,1.41c1.54,0.09,2.71,1.42,2.61,2.96l-0.63,10.22C1290.15,1058.86,1288.83,1060.03,1287.29,1059.94z"/>
		
			<rect x="1265.64" y="1045.78" transform="matrix(0.9981 0.0615 -0.0615 0.9981 66.9717 -76.0201)" class="st24" width="7.46" height="10"/>
		<path class="st24" d="M1286.37,1049.32l-9.27-0.57c-0.69-0.04-1.21-0.64-1.17-1.32l0,0c0.04-0.69,0.64-1.21,1.32-1.17l9.27,0.57
			c0.69,0.04,1.21,0.64,1.17,1.32l0,0C1287.65,1048.83,1287.06,1049.36,1286.37,1049.32z"/>
		<path class="st24" d="M1286.93,1052.81l-10.81-0.67c-0.26-0.02-0.46-0.24-0.45-0.5l0,0c0.02-0.26,0.24-0.46,0.5-0.45l10.81,0.67
			c0.26,0.02,0.46,0.24,0.45,0.5l0,0C1287.42,1052.62,1287.19,1052.82,1286.93,1052.81z"/>
		<path class="st24" d="M1286.84,1054.35l-10.81-0.67c-0.26-0.02-0.46-0.24-0.45-0.5l0,0c0.02-0.26,0.24-0.46,0.5-0.45l10.81,0.67
			c0.26,0.02,0.46,0.24,0.45,0.5l0,0C1287.33,1054.17,1287.1,1054.37,1286.84,1054.35z"/>
	</g>
	<polygon class="st25" points="1745.67,1437.47 619.1,1440.07 619.1,1297.41 1745.67,1297.41 	"/>
	<path class="st15" d="M1217.8,818.49l8.21-24.09c0,0,49.34-5.13,65.92,17.37c0,0,1.98,13.91-2.86,21.46c0,0-44.91-9.42-60.5-3.3
		L1217.8,818.49z"/>
	<path class="st23" d="M1238.93,800.91c0,0,36.03,2.37,49.45,11.64c0,0-21.51-5.13-41.05-3.75c0,0,23.33,3.59,44.97,11.5
		c0.18-4.72-0.37-8.54-0.37-8.54c-16.58-22.5-65.92-17.37-65.92-17.37l-8.21,24.09l10.78,11.44
		C1228.58,829.93,1232.51,805.26,1238.93,800.91z"/>
	<g>
		<g>
			<polygon class="st2" points="1011.49,1180.32 895.79,1180.32 853.8,1105.55 969.5,1105.55 			"/>
			<polygon class="st3" points="969.5,1105.55 853.8,1105.55 895.79,1180.32 897.17,1180.32 966.66,1107.93 1007.92,1180.32 
				1011.49,1180.32 			"/>
		</g>
		<g>
			<polygon class="st2" points="1509.47,1180.32 1393.77,1180.32 1351.78,1105.55 1467.48,1105.55 			"/>
			<polygon class="st3" points="1467.48,1105.55 1351.78,1105.55 1393.77,1180.32 1395.15,1180.32 1464.64,1107.93 1505.89,1180.32 
				1509.47,1180.32 			"/>
		</g>
	</g>
	<g>
		<path class="st5" d="M911.09,1166.49c-4.48-2.11-13.27,0.91-18.41,3.05c-2.41,1-4.01,1.8-4.01,1.8l-5.31,10.13h0.25h48.94
			C930.76,1176.09,917.22,1169.38,911.09,1166.49z"/>
		<path class="st26" d="M892.68,1169.54c-5.85-6.92-70.4-24.39-76.46-28.66c-6.08-4.29-7.82-58.77-7.82-58.77
			c-6.91-67.75-40.11-89.7-40.62-90.04l-0.01-0.01c0,0,0.34,9.17,0.9,23.09c1.17,28.92,3.29,78.31,5.34,108.27
			c1.06,15.5,4.62,27.5,8.8,36.55c1.29,2.79,2.64,5.3,4,7.55c4.32,7.16,8.69,11.63,11.31,13.95h85.23h0.25
			c7.1-4.11,9.18-11.81,9.18-11.81C892.75,1169.61,892.72,1169.58,892.68,1169.54z"/>
		<g>
			<path class="st14" d="M756.64,891.83c0,0-4.39-62.62-85.71-38.91c-18.45,5.38-16.05,61.09,28.63,82.3L756.64,891.83z"/>
			<path class="st27" d="M724.13,974.5c0,0,31.83,5.76,43.63,17.57c11.8,11.8,39.66,46.63,22.13,162.74c0,0-1.41,34.99-40.75,38.37
				C709.8,1196.54,724.13,974.5,724.13,974.5z"/>
			<path class="st28" d="M650.98,1263.24c5.47,38.1,42.19,137.13,41.13,171.36c-0.85,26.97-0.4,89.29,3.16,130.68
				c0.98,11.26,2.14,20.92,3.61,27.95c3.16,15.27,7.21,32.85,9.39,43.93c4.85,24.88,2.31,39.39,6.28,52.74
				c4.36,14.6,54.44,11.93,39.35,3.07c-5.39-3.16-13.22-9.88-17.09-18.56c-14.07-31.51,5.65-167.4,11.53-219.79
				c0.76-6.54,1.29-11.75,1.51-15.31c1.96-32.36,24.17-247.93,24.17-247.93C720.06,1161.4,645.55,1225.14,650.98,1263.24z"/>
			<path class="st29" d="M650.98,1263.24c5.47,38.1,42.19,137.13,41.13,171.36c-0.85,26.97-0.4,89.29,3.16,130.68l53.06-110.65
				c0.76-6.54,1.29-11.75,1.51-15.31c1.96-32.36,24.73-248.01,24.73-248.01C720.62,1161.31,645.55,1225.14,650.98,1263.24z"/>
			<path class="st28" d="M768.01,1198.4c0,0-46.33,212.97-51.59,244.94c-5.26,31.97-47.46,182.53-38.26,220.26
				c5.42,22.25,14.88,28.84,14.88,28.84c2.23,4.08-34.42,12.18-37.38-3.43c-3.76-19.83-4.55-47.66-10.05-94.84
				c-9.48-81.23,9.32-127.46,13.88-161.41c4.56-33.95-15.3-141.86-4.28-178.74C674.49,1189.48,717.45,1163.02,768.01,1198.4z"/>
			<path class="st30" d="M780.48,1386.31c-8.17,3.38-17.21,5.88-26.64,7.69c-0.02,0.01-0.05,0.02-0.08,0.02
				c-9.23,1.77-18.81,2.89-28.3,3.53c-13.36,0.91-26.53,0.86-38.23,0.39l-3.38-39.44l-3.56,14.28l-6.1,24.45
				c-5.64-0.39-10.71-0.85-14.99-1.3c-9.21-0.95-14.83-1.81-14.83-1.81c-10.38-85.56,2.06-139.49,16.12-171.35c0,0,0,0,0-0.01
				c4.45-10.1,9.07-17.98,13.18-23.94c2.21-3.21,4.27-5.86,6.07-8.01c1.47-1.75,2.78-3.16,3.86-4.27c2.08-2.13,3.33-3.1,3.33-3.1
				c4.8,1.84,9.53,3.4,14.14,4.7c3.29,0.93,6.53,1.73,9.7,2.42c0.05,0.02,0.1,0.03,0.16,0.03c2.17,0.48,4.31,0.89,6.42,1.26
				c0.78,0.14,1.56,0.27,2.33,0.39c2.48,0.39,4.9,0.72,7.26,0.99c13.62,1.57,25.22,1.17,33.56,0.34c7.18-0.71,11.95-1.75,13.51-2.11
				c0.37-0.09,0.56-0.14,0.56-0.14l0.06,2.18l1.13,37.19L780.48,1386.31z"/>
			<path class="st30" d="M700.63,1700.28h-43.78c-3.38-6.14-7.88-24.51-11.32-28.35c-0.25-0.27-0.52-0.59-0.79-0.94l-0.35,29.3
				h-3.94c-0.1-6.24-0.58-28.08-2.73-40.35c-2.34-4.47-4.02-8.8-3.29-10.63c1.52-3.8,15.54-12.26,15.54-12.26
				s10.38,51.89,15.28,53.13c11.7,2.95,23.47,1.85,26.8,1.45c0.61-0.08,5.88,2.27,7.86,5.41
				C700.57,1698.05,700.9,1699.15,700.63,1700.28z"/>
			<path class="st30" d="M759.24,1700.28h-43.78c-3.34-6.06-7.78-24.05-11.2-28.19l-0.34,28.19h-3.94
				c-0.01-0.83-0.03-1.93-0.06-3.26c-0.17-8-0.71-23.93-2.27-34.68c-2.99-5.24-5.47-10.88-4.6-13.05
				c1.51-3.8,15.23-12.18,15.23-12.18s0.06,0.46,0.21,1.2c0.02,0.11,0.04,0.22,0.06,0.34c0.02,0.14,0.06,0.3,0.09,0.47
				c0.02,0.12,0.05,0.23,0.07,0.36c2,10.04,10.12,49.42,15.17,50.69c13.35,3.36,26.78,1.47,27.69,1.33
				c0.03-0.01,0.05-0.01,0.05-0.01S760.31,1695.72,759.24,1700.28z"/>
			<path class="st8" d="M782.81,1159.98c-1.46,8.02-2.95,14.94-4.22,20.36c-0.09,0.39-0.18,0.77-0.27,1.14
				c-1.77,7.49-3.04,11.81-3.04,11.81c-0.22,0.08-0.44,0.15-0.66,0.22c-0.1,0.04-0.2,0.07-0.3,0.1c-0.19,0.06-0.38,0.12-0.56,0.18
				c-3.01,0.97-5.96,1.81-8.85,2.53c-16.15,4.03-30.45,4.37-42.37,3c-6.5-0.75-12.3-2-17.31-3.44c-1.15-0.33-2.27-0.67-3.33-1.02
				c-0.05-0.01-0.1-0.03-0.15-0.05c-2.76-0.9-5.23-1.84-7.39-2.75c-6.68-2.8-10.43-5.31-10.75-5.53c-0.02-0.01-0.02-0.02-0.02-0.02
				c0.56-1.36,1.04-3.06,1.44-5.04c0.77-3.75,1.26-8.54,1.54-14.15c0.5-9.7,0.35-21.84-0.18-35.18c-0.01-0.39-0.03-0.78-0.04-1.17
				c-0.68-16.73-1.93-35.27-3.22-53.28c-0.99-13.83-2.01-27.34-2.82-39.46c-0.25-3.72-0.48-7.3-0.68-10.72
				c-1.13-19.12-1.44-33.22,0.26-36.92c2.58-5.61,10.58-9.02,19.09-11.09c1.22-0.3,2.45-0.57,3.68-0.81
				c0.17-0.03-0.36-1.38-0.2-1.41c1.18-0.23,3.05,0.88,4.2,0.7c0.49-0.08,0.98-0.16,1.47-0.23c7.64-1.13,14.23-1.37,15.88-1.42
				c0.26-0.01,0.39-0.01,0.39-0.01s5.39,2.63,13.05,8.06c0.58,0.41,8.08-4.47,8.68-4.02c8.74,6.4,19.1,17.97,23.92,33.63
				c6.53,21.23,16.14,31.74,18.15,52.7C791.47,1100.74,787.27,1135.51,782.81,1159.98z"/>
			<path class="st27" d="M654.84,1197.1c16.29,3.34,42.28,1.65,61.56-3.87c6.41-1.82,12.06-4.09,16.34-6.72
				c17.23-10.59,25.59-89.02,22.61-118.71c-2.94-29.64-52.87-90.52-52.87-90.52c-12.24,9.08-17.63,30.21-24.97,57.94
				C659.82,1101.94,654.84,1197.1,654.84,1197.1z"/>
			<path class="st26" d="M654.84,1197.1c16.29,3.34,42.28,1.65,61.56-3.87c7.08-10.06,12.73-22.34,15.76-37.34
				c8.77-43.26-25.82-90.22-54.66-120.67C659.82,1101.94,654.84,1197.1,654.84,1197.1z"/>
			<path class="st20" d="M758.56,1131.21l-38.38-27.7c-4.75-3.43-11.44-2.35-14.87,2.4l-42.81,59.31
				c-3.43,4.75-2.35,11.44,2.4,14.87l38.38,27.7c4.75,3.43,11.44,2.35,14.87-2.4l42.81-59.31
				C764.39,1141.33,763.31,1134.64,758.56,1131.21z"/>
			<path class="st31" d="M724.55,1160.91c0,0,18.76-1.9,21.08,1.26c2.32,3.16,0.21,15.39-10.33,16.65
				c-10.54,1.26-22.56-7.38-22.56-7.38L724.55,1160.91z"/>
			<path class="st27" d="M702.46,977.28c0,0-33.35,3.93-47.81,33.97c-14.47,30.04-30.04,107.38-26.15,114.61
				c3.89,7.23,50.63,46.18,89.02,51.19c0,0,8.35-10.57,7.79-20.03c0,0-51.74-32.27-56.19-41.17c-4.45-8.9,39.5-82.9,38.95-95.7
				C707.51,1007.36,702.46,977.28,702.46,977.28z"/>
			<path class="st14" d="M740.07,879.41c0,0,19.55,2.4,20.67,24.98c0,0,8.56-35.78-22.42-35.06
				C707.34,870.04,740.07,879.41,740.07,879.41z"/>
			<path class="st5" d="M746.14,980.36c0-0.02-1.76-18.88-1.35-23.74v-0.01c0.22-2.5,0.48-3.97,0.48-3.97l-0.48-0.14l-39.17-11.93
				c-0.02,0.31-0.02,0.63-0.04,0.93c-0.5,10.58-1.11,18.79-1.77,25.17c-0.08,0.83-0.17,1.63-0.25,2.4
				c-0.36,3.24-0.73,5.95-1.09,8.21c7.58,3.31,13.85,5.59,19.04,7.1c14.05,4.09,20.14,2.46,22.74,0
				C746.43,982.32,746.19,980.68,746.14,980.36z"/>
			<path class="st22" d="M741.69,952.5v4.12c0,0-22.56,0.25-37.87,10.05c0.65-6.37,1.26-14.58,1.76-25.17L741.69,952.5z"/>
			<path class="st5" d="M752.51,955.33c0,0-47.46,9.53-52.94-20.12c-5.48-29.65-15.3-48.38,14.77-55.72
				c30.07-7.34,38.06,2.88,42.3,12.33C760.88,901.28,764.71,952.09,752.51,955.33z"/>
			<path class="st14" d="M736.4,872.92c0,0,13.41,16.81-11.06,32.18c-24.48,15.37-22.6,46.11-16.1,54.76
				c0,0-48.73-47.55-26.16-75.89C705.66,855.63,736.4,872.92,736.4,872.92z"/>
		</g>
	</g>
	<g>
		<g>
			<path class="st32" d="M1621.31,1628.13c0,10.79-8.75,19.53-19.53,19.53c-10.79,0-19.53-8.74-19.53-19.53
				c0-10.79,8.75-19.53,19.53-19.53C1612.57,1608.59,1621.31,1617.34,1621.31,1628.13z"/>
			<path class="st8" d="M1629,1628.13c0,10.79-8.75,19.53-19.53,19.53c-10.79,0-19.53-8.74-19.53-19.53
				c0-10.79,8.74-19.53,19.53-19.53C1620.26,1608.59,1629,1617.34,1629,1628.13z"/>
		</g>
		<g>
			<circle class="st32" cx="1731.92" cy="1680.17" r="19.53"/>
			<circle class="st8" cx="1739.61" cy="1680.17" r="19.53"/>
		</g>
		<path class="st32" d="M1586.44,1606.95l21.61,20.1c2.19,2.03,4.72,3.66,7.47,4.81l145.53,60.52l27.04-19.46L1586.44,1606.95z"/>
		<g>
			<path class="st32" d="M1892.86,1388.75l-6.93-4.79c31.9-46.18,93.58-137.15,98.66-150.93c3.2-8.69,3.22-15.94,0.06-21.56
				c-5.07-9.02-16.88-11.42-17-11.45l-0.44-0.11l-32.31-9.98c-37-14.75-52.84,14.31-53.49,15.55l-0.22,0.37l-86.36,130.49
				l-7.02-4.65l86.26-130.33c0.82-1.5,5.66-9.8,15.21-16.24c9.53-6.42,25.69-12.15,48.59-3.08l31.64,9.76
				c2.14,0.46,15.84,3.79,22.46,15.47c4.46,7.88,4.64,17.53,0.54,28.67C1985.78,1254.15,1896.65,1383.26,1892.86,1388.75z"/>
		</g>
		<path class="st32" d="M1883.1,1355.93l71.5,49.09c0,0,18.83,19.03-2.79,57.05c-19.02,33.46-120.89,223.26-120.89,223.26
			s-21.21,39.49-103.79-9.93L1883.1,1355.93z"/>
		<path class="st8" d="M1903.23,1428.74l-115.57,211.93c-4.68,8.57-11.36,15.43-19.18,20.23c-14.48,8.91-32.86,10.84-49.54,3.82
			l-72.71-30.58l-1.8-0.75l-45.54-19.15c-4.58-1.93-8.74-4.4-12.45-7.29c-0.87-0.68-1.71-1.38-2.53-2.1
			c-13.49-11.94-20.11-29.91-17.86-47.57c0.96-7.52,3.52-14.97,7.84-21.88l123.39-197.29c13.16-21.04,38.92-30.48,62.56-22.93
			l13.33,4.26l3.18,1.02h0.01l2.67,0.86l44.57,14.23l5.47,1.75l43.01,13.74c6.75,2.16,12.75,5.48,17.87,9.67
			c0.34,0.28,0.67,0.55,1,0.84l2.04,1.84C1910.11,1379.66,1915.47,1406.3,1903.23,1428.74z"/>
		<path class="st13" d="M1768.48,1660.9c-14.48,8.91-32.86,10.84-49.54,3.82l-72.71-30.58l-1.8-0.75l-45.54-19.15
			c-4.58-1.93-8.74-4.4-12.45-7.29c-0.87-0.68-1.71-1.38-2.53-2.1c-13.49-11.94-23.47-38.73-15.09-59.04
			c0,0,154.27,63.64,184.22,82.31C1768.48,1637.76,1768.48,1651.44,1768.48,1660.9z"/>
		<g>
			<g>
				<path class="st32" d="M1779.02,1321.3c-0.4,0.06-42.81,6.16-54.94,22.28c-12.46,16.56-135.14,219.28-136.37,221.33
					c-0.1,0.16-9.85,20.65,0.79,43.58l-2.07-1.54c-0.87-0.68-1.71-1.38-2.53-2.1c-9.34-23.07,0.8-40.71,1.26-41.48
					c5.06-8.37,124-204.9,136.54-221.58c11-14.61,41.68-20.75,51.46-22.37l3.18,1.02h0.01L1779.02,1321.3z"/>
			</g>
			<g>
				<path class="st32" d="M1829.06,1337.28c-6.24,1.2-30.72,7.34-45.75,31.56c-17.63,28.42-130.15,241.46-131.28,243.6l-0.08,0.16
					l-0.11,0.13c-0.08,0.1-7.76,10.91-3.79,22.18l-1.83-0.77l-1.8-0.75c-3.4-11.72,3.97-21.17,5.05-22.48
					c3.48-6.59,113.83-215.45,131.31-243.63c12.95-20.88,32.64-28.88,42.81-31.75L1829.06,1337.28z"/>
			</g>
			<g>
				<path class="st32" d="M1892.97,1363.36c-0.18,0.02-8.85,0.98-17.8,5.24c-8.94,4.26-19.99,11.99-28.6,25.86
					c-17.62,28.4-126.09,242.31-127.18,244.46l-0.08,0.17l-0.12,0.13c-0.08,0.1-6.47,13.29-2.51,24.56l-4.58-1.93
					c-2.51-9.83,3.56-23.05,4.72-24.44c3.47-6.84,109.74-216.35,127.23-244.53c16.44-26.5,40.83-31.45,45.89-32.2
					c0.34,0.28,0.67,0.55,1,0.84L1892.97,1363.36z"/>
			</g>
		</g>
	</g>
	<g id="man_1_">
		<g>
			<path class="st12" d="M1930.61,1626.87c0,0-15.51,14.38-12.49,24.6c3.03,10.22,17.03,17.03,18.92,29.51
				c1.89,12.49,9.46,19.3,16.27,19.3c6.81,0,32.47,0,32.47,0s5.01-8.79-7.1-11.44c-12.11-2.65-16.67-17.32-15.92-30.94
				c0.76-13.62-1.14-31.78-1.14-31.78l-25.73-6.05L1930.61,1626.87z"/>
			<path class="st12" d="M2211.88,1700.25h-86.23c-0.75-0.16-1.32-0.32-1.68-0.51c-5.75-2.87-3.96-24.86-3.26-31.67
				c0.13-1.26,0.23-2.01,0.23-2.01s30.28-24.21,34.44-5.67c0.13,0.58,0.28,1.14,0.45,1.71c5.23,17.35,28.74,25.23,42.31,27.43
				C2208.49,1691.22,2211.18,1697.23,2211.88,1700.25z"/>
			<path class="st14" d="M2194.54,1203.83c0,0-4.6,57.36-10,126.31c-7.34,93.66-16.18,208.71-17.05,230.51
				c-1.51,37.85-7.57,98.39-7.57,98.39s-14.37,14.38-43.14,8.32c0,0-25.63-86.42-32.95-177.86c-0.11-1.5-0.23-3.01-0.34-4.52
				c-6.81-93.08-17.4-289.09-17.4-289.09L2194.54,1203.83z"/>
			<path class="st12" d="M2194.54,1203.83c0,0-4.6,57.36-10,126.31l-100.71,159.35c-0.11-1.5-0.23-3.01-0.34-4.52
				c-6.81-93.08-17.4-289.09-17.4-289.09L2194.54,1203.83z"/>
			<path class="st14" d="M2173.54,1210.64c0,0-82.87,207.74-137.36,305.36c-54.49,97.62-71.52,124.87-71.52,124.87
				s-31.22-12.49-34.06-21c0,0,20.84-188.47,57.33-234.41c20.62-25.96,44.84-103.87,45.97-131.11c1.14-27.24,7.38-81.16,7.38-81.16
				L2173.54,1210.64z"/>
		</g>
		<path class="st5" d="M2257.34,1153.29l4.74,9.44c0,0,24.09,3.37,17.46,28.47c0,0-3.57,10.33-10.21,7.06
			c-6.64-3.27-3.37-2.99-12.89-7.39c-9.52-4.4-15.03-12.85-12.9-20.6l-1.52-8.22L2257.34,1153.29z"/>
		<path class="st5" d="M2131.04,889.98c3.68-21.75,3.8-34.65,3.8-34.65l-42.04-33.88c1.56,46.59-28.29,69-28.29,69
			s56.03,27.58,88.41,17.36C2152.91,907.81,2144.94,897.62,2131.04,889.98z"/>
		<path class="st5" d="M2144.74,854.57c0,0-53.49,8.89-58.51-24.51c-5.02-33.39-15.31-54.74,18.63-61.82
			c33.94-7.09,42.5,4.66,46.89,15.4C2156.14,794.37,2158.53,851.39,2144.74,854.57z"/>
		<path class="st12" d="M2086.59,832.36c0,0,1.08-44.73,49.82-51.91c33.38-4.92,13.17-32.81,9.35-37.23c0,0-25.52,4.87-51.64,10.6
			C2039.29,765.85,2080.79,825.71,2086.59,832.36z"/>
		<path class="st20" d="M2251.73,1166.42c7.15-7.34,12.46-16.89,12.46-16.89s-60.77-75.51-65.71-83.34
			c-4.94-7.83-41.85-133.42-41.85-133.42l-93.33-18.91c0,0,77.91,160.73,90.81,180.32c21.33,32.38,85.13,80.57,85.13,80.57
			S2246.12,1172.18,2251.73,1166.42z"/>
		<path class="st33" d="M2198.11,1208.61c-0.97,0.81-2.11,1.3-3.4,1.3c-12.16-0.17-47.62,6.59-77.63,3.51
			c-25.29-2.43-47.68-9.92-71.73-20.7c-3.19-1.43-10.54-5.35-10.38-8.92c0.11-3.91,0.5-9.57,0.98-16.71
			c1.7-24.82,4.67-67.5,1.78-116.74c-0.52-9.17-0.79-18.27-0.83-27.22c-0.25-66.74,12.76-125.77,39.35-145.64
			c2.27-1.63,16.44,5.52,29.26,11.84c11.84,5.84,20.12,5.71,31.3,3.44l14.74,10.67c13.62,12.65,28.54,29.84,35.03,55.94
			c5.52,22.21,8.76,62.27,10.54,103.78c0.81,18.81,1.46,37.79,1.63,55.79v0.64c0.16,1.78,0.16,3.73,0.16,5.52
			C2199.57,1171.31,2198.92,1207.96,2198.11,1208.61z"/>
		<path class="st20" d="M2035.96,1167.08c1.7-24.82,4.67-67.5,1.78-116.74c-0.52-9.17-0.79-18.27-0.83-27.22
			c11.08-26.87,20.13-46.36,20.13-46.36h27.92C2084.97,976.76,2105.44,1116.58,2035.96,1167.08z"/>
		<g>
			<path class="st5" d="M1981.64,1175.77l-5.3,9.14c0,0,10.38,21.99-14.25,30.21c0,0-10.6,2.67-11.51-4.67
				c-0.91-7.35,0.66-4.46-0.88-14.83c-1.54-10.37,2.51-19.61,10.16-22.08l6.04-5.78L1981.64,1175.77z"/>
			<path class="st33" d="M1967.59,1178.27c10.05,1.96,20.95,1.17,20.95,1.17s29.85-92.21,33.69-100.64
				c3.84-8.42,88.67-108.12,88.67-108.12l-35.34-88.43c0,0-91.75,153.25-101.06,174.78c-15.39,35.58-20.74,115.37-20.74,115.37
				S1959.69,1176.73,1967.59,1178.27z"/>
		</g>
	</g>
	<path class="st22" d="M2132.67,879.33c0,0-9.14-19.78-32.47-29.72c0,0,13.39,7.98,34.64,5.73
		C2134.84,855.33,2133.74,872.12,2132.67,879.33z"/>
	<g>
		<path class="st34" d="M570.45,1520.85h-53.13c-19.59,0-35.52-15.94-35.52-35.52v-190.65c0-19.59,15.94-35.52,35.52-35.52h53.13
			c19.59,0,35.52,15.94,35.52,35.52v190.65C605.97,1504.91,590.04,1520.85,570.45,1520.85z M517.32,1268.62
			c-14.36,0-26.05,11.69-26.05,26.05v190.65c0,14.36,11.69,26.05,26.05,26.05h53.13c14.36,0,26.05-11.69,26.05-26.05v-190.65
			c0-14.36-11.69-26.05-26.05-26.05H517.32z"/>
		<g>
			<path class="st34" d="M581.33,1668.63h-8.08c-9.19,0-16.64,7.45-16.64,16.64s7.45,16.64,16.64,16.64h8.08
				c9.19,0,16.64-7.45,16.64-16.64S590.52,1668.63,581.33,1668.63z"/>
			<circle class="st4" cx="581.33" cy="1685.28" r="16.64"/>
		</g>
		<g>
			<path class="st34" d="M478.69,1668.63h-8.08c-9.19,0-16.64,7.45-16.64,16.64s7.45,16.64,16.64,16.64h8.08
				c9.19,0,16.64-7.45,16.64-16.64S487.89,1668.63,478.69,1668.63z"/>
			<circle class="st4" cx="478.69" cy="1685.28" r="16.64"/>
		</g>
		<path class="st34" d="M602.49,1674.79H500.65c-31.01,0-56.15-25.14-56.15-56.15v-195.59c0-31.01,25.14-56.15,56.15-56.15h101.84
			c31.01,0,56.15,25.14,56.15,56.15v195.59C658.63,1649.65,633.5,1674.79,602.49,1674.79z"/>
		<path class="st4" d="M557.49,1674.79H455.65c-31.01,0-56.15-25.14-56.15-56.15v-195.59c0-31.01,25.14-56.15,56.15-56.15h101.84
			c31.01,0,56.15,25.14,56.15,56.15v195.59C613.63,1649.65,588.5,1674.79,557.49,1674.79z"/>
		<g class="st35">
			<path class="st34" d="M518.01,1629.8H416.18c-5.23,0-10.29,0.73-15.09,2.07c5.95,24.62,28.11,42.92,54.56,42.92h101.84
				c5.23,0,10.29-0.73,15.09-2.07C566.63,1648.1,544.46,1629.8,518.01,1629.8z"/>
		</g>
		<path class="st34" d="M583.54,1370.06h5.06v-3.16H485.54c-23.38,7.96-40.25,30.11-40.25,56.15v195.59
			c0,26.04,16.87,48.19,40.25,56.15h103.06v-3.16h-5.06c-29.22,0-52.99-23.77-52.99-52.99v-195.59
			C530.55,1393.84,554.33,1370.06,583.54,1370.06z M556.96,1671.63H504.6c-29.22,0-52.99-23.77-52.99-52.99v-195.59
			c0-29.22,23.77-52.99,52.99-52.99h52.36c-19.39,9.77-32.72,29.84-32.72,52.99v195.59
			C524.24,1641.78,537.58,1661.86,556.96,1671.63z"/>
	</g>
	<path class="st36" d="M2815.07,1701.92H184.93c-1.63,0-2.95-1.32-2.95-2.95l0,0c0-1.63,1.32-2.95,2.95-2.95h2630.15
		c1.63,0,2.95,1.32,2.95,2.95l0,0C2818.03,1700.6,2816.7,1701.92,2815.07,1701.92z"/>
</g>
</svg>
